<svg id="_レイヤー_1" data-name="レイヤー 1" xmlns="http://www.w3.org/2000/svg" viewBox="0 0 1908.47 505.86">
  <defs>
    <style>
      .cls-1 {
        fill: #383838;
      }

      .cls-2 {
        fill: #fff;
      }
    </style>
  </defs>
  <g>
    <path class="cls-1" d="M688.39,92.83c1.29-1.08,1.94-1.83,1.94-2.48,0-.86-.32-2.04-1.83-3.55-.32-.32-.54-.54-.54-.75s.11-.32,.54-.54c.97-.43,2.8-.75,3.77-.75s3.01,.75,7.32,4.2c4.95,3.88,6.14,5.6,6.14,7.75,0,1.72-1.08,2.91-3.01,3.66-17.55,7.21-29.39,10.98-40.26,12.81-.11,4.84-.11,9.58-.11,13.35,0,5.81,1.4,8.07,8.07,8.07,9.47,0,17.01-1.08,22.71-2.69,2.15-.65,3.23-.86,5.06-.86,1.72,0,4.2,.65,7.21,2.15,2.58,1.29,3.88,3.12,3.88,5.6s-1.51,4.41-3.77,5.06c-3.44,.97-12.27,2.15-28.63,2.15-12.49,0-17.33-2.26-21.42-6.78-2.58-2.8-3.88-6.24-4.09-12.81-.11-3.98-.11-7.97-.11-12.06,0-8.29,.11-17.01,.11-26.7,0-5.6-2.04-6.78-5.92-8.29-.54-.21-.65-.43-.65-.65s.11-.43,.43-.65c4.2-2.37,6.78-3.12,8.07-3.12,1.51,0,3.98,1.08,8.29,4.31,3.77,2.8,4.63,4.31,4.63,6.03,0,1.18-.65,2.37-1.29,3.44-1.29,1.94-1.62,3.98-1.83,7.43-.22,3.98-.43,8.5-.54,13.13,8.93-4.4,18.4-10.32,25.83-16.46Zm33.37-17.23c0,5.81-4.85,10.66-10.66,10.66s-10.66-4.84-10.66-10.66,4.84-10.66,10.66-10.66c5.81,.01,10.66,4.85,10.66,10.66Zm-17.76,0c0,3.77,3.34,7.1,7.11,7.1s7.11-3.34,7.11-7.1-3.34-7.11-7.11-7.11-7.11,3.35-7.11,7.11Z"/>
    <path class="cls-1" d="M828.75,92.94c5.17,3.77,6.57,5.27,6.57,6.89,0,1.4-.43,2.15-1.83,3.34-1.4,1.18-2.15,2.05-3.45,4.52-13.13,24.65-28.2,39.72-50.49,47.47-.32,.11-.43,.11-.65,.11-.43,0-.65-.22-.65-.54,0-.21,.11-.43,.54-.75,13.46-9.04,28.53-25.84,38.43-50.7,.43-.97,.54-1.18,.54-1.4,0-.65-.32-.97-1.18-.97-11.41,1.18-24.44,3.23-34.56,5.49-1.83,.43-3.12,.86-4.09,1.51-.86,.65-1.72,.86-2.69,.86-1.19,0-3.01-.75-6.35-3.88-3.12-2.91-4.2-4.63-4.2-5.81,0-1.4,.22-2.8,.65-3.98,.11-.32,.21-.43,.43-.43s.22,0,.54,.22c3.12,2.15,4.31,2.48,7,2.48,1.51,0,3.12-.21,6.57-.65,10.01-1.29,22.18-2.8,33.26-4.2,3.66-.43,4.52-.75,6.14-1.94,.97-.75,1.83-1.18,2.69-1.18,1.29-.02,2.8,.63,6.78,3.54Zm-45-11.74c-3.23-2.26-5.81-4.74-6.68-5.92-.97-1.18-1.29-3.23-1.29-4.09,0-.32,.11-.65,.32-.65s.32,0,.86,.22c3.23,1.29,5.92,1.51,8.72,1.51,2.37,0,6.03-.43,11.41-1.4,5.81-1.08,8.4-1.83,9.9-2.69,1.51-.86,2.69-1.18,4.41-1.18,1.29,0,4.2,.54,6.24,1.51,3.88,1.62,5.17,3.55,5.17,5.81,0,2.48-1.08,3.66-4.73,4.41-9.26,1.4-15.72,2.48-23.04,3.44-3.34,.32-5.27,.65-6.35,.65-2.36,0-3.11-.33-4.94-1.62Z"/>
    <path class="cls-1" d="M933.05,108.22c0,1.29-.11,2.04-.54,2.69-.54,.75-.97,2.04-1.61,3.55-8.18,20.78-17.55,32.3-35.42,41.02-.22,.11-.43,.22-.65,.22-.43,0-.65-.32-.65-.54,0-.32,.11-.43,.32-.65,12.27-10.66,19.27-27.02,23.58-42.95,.86-3.23,1.08-4.84,1.08-5.92s-.22-1.94-1.29-2.91c-5.81,.65-11.95,1.62-18.3,2.69-2.58,.43-3.12,.75-4.52,1.4-1.51,.97-2.26,1.18-3.23,1.18-1.4,0-3.34-.75-7.43-4.09-2.8-2.26-3.88-3.98-3.88-5.38,0-.86,.22-2.15,.54-3.23,.11-.43,.22-.54,.43-.54s.22,0,.54,.21c2.91,1.83,4.85,2.37,7,2.37,2.26,0,4.41-.21,6.67-.54,15.29-1.83,30.47-3.44,44.35-4.95,3.66-.32,5.06-.75,6.24-1.18,.86-.32,2.15-1.18,3.34-1.18,2.15,0,3.98,.43,9.37,3.12,2.58,1.08,4.09,2.69,4.09,5.6,0,2.26-1.29,3.77-4.41,3.88-1.61,0-5.17-.65-7.43-.75-2.91-.22-4.85-.32-8.4-.32-4.63,0-10.77,.32-15.29,.65,4.31,3.32,5.5,5.26,5.5,6.55Zm-33.48-28.85c-2.15-1.83-3.01-3.44-3.34-4.52-.22-.86-.22-2.05-.22-2.69,0-.32,.11-.65,.32-.65s.43,.11,.65,.21c2.91,1.29,5.6,1.94,9.15,1.94,2.91-.11,8.5-.75,13.67-1.72,6.14-1.08,7.43-1.51,10.01-2.91,2.04-1.18,3.34-1.72,5.17-1.72,1.72,0,4.09,.65,7.97,2.58,3.01,1.51,3.77,3.01,3.77,5.17,0,2.48-1.29,3.66-5.38,4.2-10.98,1.29-20.67,2.91-30.9,4.31-1.61,.22-2.48,.22-3.23,.22-2.04,0-3.77-1.08-7.64-4.42Z"/>
    <path class="cls-1" d="M1043.59,118.02c-11.09,9.15-22.61,15.5-32.3,18.73-.86,0-1.29-.32-1.29-.65s.11-.65,.43-.86c15.61-10.98,32.08-26.81,39.72-38.43,1.08-1.72,1.61-3.23,1.61-4.52,0-1.83-.97-2.69-2.58-3.98-.43-.32-.65-.54-.65-.75,0-.32,.43-.65,.86-.75,1.29-.43,3.12-.86,4.41-.86,1.72,0,4.09,1.08,7.64,4.2,3.12,2.69,3.98,3.77,3.98,5.17,0,.97-.32,1.72-1.94,3.23-1.19,1.08-1.72,1.62-2.58,2.69-2.48,2.91-6.03,6.46-9.26,9.58,.54,.32,.86,.65,1.19,.86,.65,.54,1.18,1.29,1.18,1.94s-.11,.97-.43,1.51c-.22,.43-.32,2.26-.32,4.31,0,3.02,0,6.57,.22,16.79,.11,4.2,.21,8.5,.21,12.7s-1.72,6.78-4.73,6.78c-2.15,0-3.88-1.18-5.17-3.77-1.18-2.04-2.15-5.27-2.15-6.78,0-.75,.32-1.51,.86-2.8,.65-1.62,.75-2.58,.86-4.74,.22-6.35,.22-12.27,.22-14.32v-5.28h.01Z"/>
    <path class="cls-1" d="M1120.01,147.84c-.54,0-.75-.32-.75-.65s.11-.43,.43-.65c18.73-9.26,38.43-27.45,53.93-59.96-6.03,.86-14.53,2.48-22.18,4.31-2.15,.54-3.23,.97-4.63,1.62-1.29,.65-2.37,.97-3.55,.97-1.61,0-2.8-.32-6.57-4.52-3.23-3.55-3.66-4.84-3.66-6.03,0-.97,.43-2.48,.75-3.44,.22-.54,.32-.65,.54-.65s.22,0,.65,.32c3.23,2.26,4.52,2.91,7.54,2.91,1.72,0,2.91-.11,5.28-.32,8.07-.86,16.25-2.15,23.36-3.55,3.66-.75,4.41-1.08,5.38-2.05,1.18-1.18,2.15-1.83,3.01-1.83,1.08,0,2.91,.97,7.54,4.63,4.09,3.34,5.38,4.63,5.38,6.14s-.54,2.05-2.58,3.44c-1.4,.86-2.69,1.62-3.77,3.55-4.95,8.61-9.91,16.04-15.07,22.39,8.29,1.29,16.36,3.98,23.25,8.72,2.91,1.94,5.6,4.31,7.54,7.1,1.72,2.58,2.8,5.06,2.8,7.86,0,5.49-3.01,8.07-7.43,8.07-3.77,0-5.81-1.72-7.86-6.67-3.55-8.29-11.41-17.22-20.13-22.82-14.64,17.33-30.36,26.38-48.98,31.11h-.22Z"/>
    <path class="cls-1" d="M1268.77,97.57c13.13-.11,17.44,4.31,17.44,9.37,0,3.01-3.01,5.38-5.92,5.38-2.48,0-3.66-1.18-4.41-3.66-1.29-4.52-3.98-7.64-7.11-9.47,.22,7.86,.54,11.52,.54,13.78,0,3.23-1.61,4.63-7,4.63-4.2,0-4.52-.86-4.52-3.98,0-2.05,.11-4.2,.43-8.18-5.49,5.92-13.56,11.2-21.64,14.1-.65,.22-1.08-.65-.54-.97,7.32-4.2,15.5-14.32,19.59-24.22h-3.44v1.51c0,2.8-1.94,4.09-6.68,4.09-2.58,0-3.23-.54-3.23-3.12,0-1.72,.43-6.46,.43-10.12,0-3.12,0-5.49-.43-10.87,8.5,1.94,10.77,2.8,11.41,3.66h4.74v-6.89h-8.61c-3.45,0-6.57,.11-10.87,.75l-.97-3.66c4.85,.54,8.83,.75,11.84,.75h8.61c-.11-5.6-.22-8.5-.65-11.95,13.67,1.08,14.64,2.04,14.64,3.44,0,1.29-.32,1.72-3.66,3.23v5.27h5.92c5.49-7.1,5.71-7.21,6.68-7.21,.86,0,1.18,0,5.38,4.09,3.12,3.12,3.66,3.66,3.66,4.31,0,.75-.43,.97-1.08,.97h-20.56v6.89h4.41c3.88-4.2,4.09-4.31,4.85-4.31s1.18,.11,5.06,2.8c3.98,2.69,4.31,3.12,4.31,3.98,0,.65-.11,.86-2.05,2.58v2.15c0,2.48,.32,4.84,.32,6.03,0,2.8-3.45,3.98-6.78,3.98-3.01,0-3.77-.43-3.88-2.37h-6.24v3.24h.01Zm48.12,56.19c7.32-9.04,7.64-9.15,8.61-9.15,1.08,0,1.4,.11,6.89,4.95,4.52,3.98,4.74,4.41,4.74,5.17s-.54,1.18-1.4,1.18h-82.89c-3.77,0-7.97,.22-14.1,.75l-1.08-3.66c7.1,.54,11.41,.75,15.18,.75h3.98v-11.08c0-6.46,0-10.33-.54-14.96,15.39,1.62,16.9,2.04,16.9,3.98,0,.97-.75,1.94-3.88,3.23v18.84h11.63v-18.52c0-7.43-.11-10.33-.11-13.03h-17.12c-3.77,0-7.97,.22-14.1,.75l-1.08-3.66c7.11,.54,11.41,.75,15.18,.75h42.09c6.67-7.86,6.89-7.97,7.86-7.97s1.19,.11,5.81,4.2c4.09,3.55,4.31,3.87,4.31,4.84,0,.65-.32,1.08-1.18,1.08h-26.48c-.11,.75-.65,1.18-1.62,1.72v12.6h10.01c6.89-8.07,7.11-8.29,7.97-8.29,.97,0,1.4,.22,6.03,4.52,3.77,3.44,4.31,3.87,4.31,4.84,0,.65-.32,1.08-1.18,1.08h-27.13v15.07h22.39v.02Zm-64.7-61.58h6.24v-10.55h-4.95c-.22,.32-.65,.75-1.29,1.18v9.37Zm16.58-10.55v10.55h6.24v-10.55h-6.24Zm48.76-4.63c7.86,2.91,8.18,3.66,8.18,4.74,0,1.18-.43,1.72-3.77,2.37-2.05,4.84-4.42,9.15-7.32,12.92,6.46,3.23,16.15,6.35,23.58,7.21,.65,.11,.54,.65,0,.97-3.01,2.04-6.03,5.71-7.64,9.8-.65,1.62-.97,2.15-2.04,2.15-.54,0-1.08-.11-1.83-.32-6.03-1.72-14.32-6.89-19.38-11.95-8.61,7.43-19.59,11.63-32.4,12.49-.65,0-.86-.97-.22-1.08,10.12-2.26,19.81-9.04,27.02-18.73-2.8-4.74-4.52-10.01-4.95-15.83-2.91,3.77-6.24,7.32-9.58,10.01-.54,.43-1.29-.11-.97-.65,3.23-4.74,6.57-17.12,7.64-27.56,.22-1.72,.43-3.87,.54-5.92,14.75,3.77,15.39,4.52,15.39,5.92,0,1.29-.43,1.72-3.87,3.02-1.08,2.58-2.58,5.38-4.42,8.29h15.61c6.78-8.61,7.21-8.83,8.07-8.83,1.08,0,1.51,.11,5.92,4.41,4.52,4.31,4.63,4.63,4.63,5.49,0,.54-.43,1.08-1.19,1.08h-17Zm-17.33,0c-.65,.97-1.4,1.94-2.04,2.91,1.51,4.41,3.88,7.86,7.64,11.09,1.72-3.12,3.12-6.35,4.31-9.8,.65-1.94,1.08-3.12,1.29-4.2h-11.2Z"/>
    <path class="cls-1" d="M1427.64,89.38c3.01,9.37,9.37,19.38,17.87,27.77,6.03,5.92,10.98,9.58,15.93,12.27,.54,.32,.43,.97-.22,1.18-3.01,1.29-6.78,4.41-9.47,8.94-.75,1.18-1.61,1.72-2.37,1.72-.54,0-1.4-.32-2.48-1.4-3.12-2.8-7.32-8.18-10.66-14.53-5.06-9.58-8.29-20.78-10.66-35.96h-.43l.54,35.09,.11,7c4.52-7.75,4.74-7.97,5.49-7.97,.86,0,1.19,0,4.74,4.74,2.37,3.12,2.69,3.55,2.69,4.2,0,.75-.32,1.18-1.29,1.18h-11.63c.32,13.67,.54,19.06,.54,21.42,0,3.23-1.83,4.63-8.4,4.63-4.95,0-5.71-.86-5.71-3.98,0-2.58,.22-9.26,.43-22.07h-2.58c-3.12,0-5.6,.11-11.73,.75l-1.08-3.66c5.49,.65,8.18,.75,12.81,.75h2.69v-2.37l.43-21.42c-7.43,14.53-17.76,25.73-28.53,32.62,0,9.69,.11,13.13,.11,14.96,0,3.01-3.12,4.63-8.93,4.63-4.09,0-4.74-.86-4.74-3.66s.43-10.12,.65-25.08l.32-31.43c-4.63,5.6-9.37,10.55-14.1,14.21-.54,.43-1.4-.32-.97-.86,5.38-7.1,13.24-24.22,19.59-43.92,1.51-4.95,2.04-7.64,2.47-10.33,14.75,5.6,16.69,7,16.69,8.4,0,1.51-.97,2.37-4.85,3.44-2.8,5.81-6.46,11.95-10.44,17.87,6.24,2.37,7.43,3.34,7.43,4.52,0,.97-.65,1.72-3.34,2.8v42.63c8.94-9.58,18.52-31.33,22.18-49.09h-6.46c-3.23,0-7,.11-10.98,.75l-1.08-3.66c4.63,.54,8.5,.75,12.06,.75h12.7v-9.04c0-10.87-.32-14.42-.86-19.16,15.93,1.08,17.87,2.05,17.87,3.77,0,1.29-.97,2.05-4.31,3.55v20.89h10.66c7.32-9.9,7.54-10.12,8.61-10.12s1.4,.11,7.11,5.92c3.88,3.88,4.41,4.41,4.41,5.38,0,.54-.32,.97-1.08,.97h-27.75Z"/>
    <path class="cls-1" d="M1508.8,119.42c-5.49,0-10.12-4.84-10.12-10.12,0-5.71,4.63-10.12,10.12-10.12s10.12,4.41,10.12,10.12c0,5.27-4.63,10.12-10.12,10.12Z"/>
    <path class="cls-1" d="M1558.96,101.87c-.22-5.92-1.4-8.83-4.42-11.84-.43-.43-.32-.86,.32-.86,11.52-.11,17.98,5.17,17.98,10.98,0,5.17-3.02,8.5-7.75,8.5-3.77,0-6.03-2.47-6.13-6.78Zm17.86,31.01c0,6.14,5.38,12.38,5.38,17.87,0,5.06-3.66,8.5-9.58,8.5-5.6,0-7.75-3.01-7.75-7.1,0-2.48,.65-7.86,.65-10.98,0-4.2-2.58-7.97-8.61-10.23-.65-.21-.54-1.29,.11-1.29,1.4,.11,2.91,.21,3.98,.21,3.23,0,4.52-2.15,6.03-5.81,5.49-13.46,12.38-31.76,20.45-55.12,.22-.65,1.29-.32,1.19,.32-4.95,23.36-9.47,45.21-11.3,55.87-.44,2.27-.55,4.63-.55,7.76Zm-13.88-71.92c11.52,.32,18.95,5.06,18.95,12.16,0,5.17-3.34,8.61-7.86,8.61-3.77,0-6.14-2.58-6.46-6.46-.54-7.32-1.4-10.44-4.95-13.46-.54-.42-.33-.85,.32-.85Zm35.95,33.16c3.34-10.77,5.38-18.52,6.89-26.59,.65-3.12,.97-4.84,1.18-7.75,17.22,4.63,19.59,5.81,19.59,7.21,0,1.51-.43,2.15-4.63,3.12-6.03,9.15-11.09,16.58-16.25,24.01,9.8,0,19.16-.22,29.5-.54-2.04-4.63-5.17-8.29-9.9-11.41-.54-.32,0-1.18,.65-1.08,18.41,1.83,26.91,10.44,26.91,19.05,0,5.6-3.88,8.61-8.61,8.61-3.66,0-5.92-2.26-6.57-6.35-.32-1.72-.65-3.44-1.08-4.95-14.42,3.66-26.7,6.46-41.88,10.12-1.08,2.69-1.83,3.34-2.91,3.34-1.62,0-2.58-2.8-6.57-17.01,3.55,.22,5.49,.22,7.97,.22h5.71Zm30.47,24.33c5.27-5.92,5.81-6.03,6.89-6.03,1.29,0,1.94,.21,6.78,3.98,3.77,3.01,4.2,3.55,4.2,4.52s-.21,1.18-3.23,3.87v6.78c0,10.33,.54,18.62,.54,21.53s-3.12,4.41-8.83,4.41c-4.63,0-5.27-.86-5.27-3.55v-3.98h-25.08v4.31c0,3.34-2.69,5.17-8.83,5.17-3.88,0-4.63-.54-4.63-4.2,0-1.72,.54-13.24,.54-27.02,0-8.07,0-10.12-.43-15.39,10.44,2.8,13.78,4.2,14.75,5.6h22.6Zm1.07,29.39v-27.24h-23.79c-.21,.32-.65,.75-1.29,1.18v26.05h25.08Z"/>
    <path class="cls-1" d="M1761.75,89.49c9.37,5.38,9.9,6.03,9.9,7.43,0,1.18-1.19,1.62-5.38,1.51-3.12,1.18-6.24,2.48-9.37,3.77,5.71,2.8,12.7,5.06,20.89,6.57,.65,.11,.43,.75-.11,1.08-3.34,1.62-6.03,6.35-7.11,9.04-.43,1.08-.97,1.62-1.72,1.62-.54,0-1.72-.22-2.37-.54-2.16-.97-4.09-2.05-6.03-3.23,0,7.11,.32,10.87,.32,11.73,0,3.12-3.34,4.74-7.86,4.74-3.55,0-4.41-.86-4.41-3.66v-.21h-3.01c-.11,.75-.86,1.18-2.48,1.83v5.06c0,3.23,.43,9.69,.43,12.81,0,4.95-2.8,7.86-6.14,9.47-2.8,1.4-5.06,1.83-7.21,1.83-1.72,0-2.37-.43-3.12-2.48-1.4-3.66-3.66-6.03-9.47-7.75-.65-.21-.65-1.08,0-1.08,4.41,.22,7.32,.11,11.09-.32,1.72-.21,2.69-.97,2.69-3.88v-10.12c0-1.72-.11-3.66-.11-5.38h-5.6c0,2.91-2.37,4.41-7.32,4.41h-.43c10.23,5.71,10.66,6.24,10.66,7.54,0,1.18-.97,1.72-4.52,1.83-6.24,6.03-21.96,13.24-33.8,15.18-.65,.11-.97-.75-.32-.97,7.32-2.69,16.9-10.76,22.39-18.84,1.72-2.48,2.37-3.77,3.12-5.28-.97-.43-1.18-1.4-1.18-2.91,0-1.18,.32-7.32,.32-11.52v-4.09c-3.98,2.69-8.08,4.84-11.84,6.24-1.29,6.24-3.12,11.52-5.6,16.25-4.2,8.07-11.52,15.93-20.56,20.88-.54,.32-1.18-.43-.65-.86,4.95-4.2,9.47-11.73,12.16-19.92,2.48-7.64,3.88-17.87,4.2-29.93-2.48,3.55-4.95,6.78-7.64,10.12-1.29,3.23-1.94,3.98-3.12,3.98-1.29,0-1.94-.54-7.21-14.21,1.72-.32,3.01-.65,6.03-1.51,3.88-1.08,7.75-2.26,12.06-3.88v-10.98c-.65,4.2-3.34,6.14-6.89,6.14-2.8,0-5.49-2.69-5.17-6.24,.54-6.67-.54-11.41-3.44-14.42-.43-.43,0-.97,.65-.86,8.4,1.51,13.89,6.67,14.86,11.95-.11-11.52-.43-15.93-.97-20.67,12.92,2.8,15.61,3.88,16.04,4.95h17.44v-2.48c0-3.87,0-5.27-.65-10.55,16.79,1.08,18.84,2.26,18.84,3.88,0,1.29-.54,1.83-4.41,3.55v5.6h17.12c7.54-8.61,7.86-8.94,8.93-8.94s1.61,.22,6.89,5.17c3.66,3.44,3.88,3.88,3.88,4.84,0,.65-.32,1.08-1.19,1.08h-44.14c13.89,3.77,15.18,4.63,15.18,6.14,0,1.4-1.61,2.37-5.17,2.8-.54,1.51-1.29,3.01-1.94,4.52h15.72c6.67-8.18,7.11-8.5,8.08-8.5s1.4,.11,6.14,4.52c3.98,3.66,4.31,4.09,4.31,5.06,0,.65-.32,1.08-1.51,1.08h-9.17Zm-57.05,6.47c0,9.04-.54,16.58-1.72,23.04,4.52-3.02,9.26-7.97,13.35-14.1-.97,.86-2.26,1.4-3.66,1.4-2.69,0-4.95-1.72-4.95-4.31,0-4.74-.65-7.1-3.01-8.61v2.58h-.01Zm20.24-8.61c.75-2.15,1.51-4.52,2.04-6.78,.75-2.69,1.08-4.63,1.4-6.67h-21.85c-.54,.43-1.08,.75-1.83,.97v17.33c9.8,0,13.78,3.55,13.78,8.07,0,.54-.11,.97-.21,1.51,2.26-3.77,4.2-7.86,5.92-12.27h-5.27c-2.48,0-7.11,.21-12.16,.75l-1.08-3.66c5.27,.54,10.12,.75,13.24,.75h6.02Zm12.16,2.15c-3.23,5.92-7.32,11.41-11.84,16.04,.97,.54,1.61,.86,1.94,1.18h20.24l.54-.75c-3.23-4.52-5.92-10.01-7.64-16.47h-3.24Zm-9.58,19.38c-.32,.32-.97,.65-1.94,.86v7.1h22.93v-7.96h-20.99Zm20.99,18.3v-8.18h-22.93v8.18h22.93Zm-6.56-37.68c2.37,3.98,6.24,7.64,11.41,10.77,1.83-2.91,3.34-5.49,4.63-7.97,.21-.54,.75-1.4,1.4-2.8h-17.44Zm29.82,60.07c0,4.09-3.34,7-7,7-2.8,0-4.74-1.4-6.57-5.49-3.12-7-8.5-11.95-13.35-13.78-.65-.22-.43-1.18,.22-1.18,17.87-.97,26.7,6.45,26.7,13.45Z"/>
    <path class="cls-1" d="M1875.74,142.56c0,2.15,.54,2.91,5.17,2.91,5.6,0,7.64-.97,9.36-3.55,1.94-2.8,3.23-6.03,5.6-13.13,.22-.65,1.29-.54,1.29,.11-.21,3.98-.32,8.5-.32,10.44,0,2.69,0,4.2,.97,5.49,1.29,1.83,1.94,2.8,1.94,4.63,0,5.49-3.88,8.61-20.45,8.61-13.56,0-16.36-1.72-16.36-10.66,0-2.91,.32-6.78,.32-23.9,0-3.23,0-6.46-.11-9.69h-13.46c10.44,3.01,11.63,4.09,11.63,5.27,0,1.4-.54,1.83-3.12,2.91-3.01,20.13-18.3,33.37-39.94,37.35-.65,.11-1.08-.97-.43-1.18,14.32-4.84,24.33-18.84,27.13-36.92,.43-2.15,.75-4.74,.97-7.43h-9.47v.75c0,6.57-1.83,10.23-4.74,13.46-2.48,2.69-6.89,4.84-9.58,4.84-1.18,0-2.04-.97-2.47-2.91-.86-3.88-2.26-5.81-4.84-7,.11,23.79,.22,29.6,.22,32.51s-3.23,4.41-8.4,4.41c-4.09,0-4.85-.86-4.85-3.55,0-3.01,.75-11.09,.75-50.92,0-30.68,.11-36.71-.75-44.35,10.77,2.48,14.21,3.88,15.18,5.06h5.06c3.98-5.38,4.41-5.49,5.38-5.49,1.08,0,1.61,.11,6.89,4.74,3.88,3.34,4.2,4.09,4.2,5.17s-.32,1.4-4.41,3.44c-5.6,7.21-9.58,12.38-13.03,16.47-.75,.97-.65,1.83,.54,2.48,8.5,4.84,13.56,11.52,14.64,18.73h40.69c6.24-8.18,6.78-8.61,7.75-8.61s1.51,.22,6.57,4.85c3.34,3.01,4.09,3.98,4.09,4.74s-.43,1.18-1.08,1.18h-16.47c0,.75-.32,1.29-2.05,2.37v26.37h0Zm-60.93-21.2c6.67,0,10.01-3.44,10.01-10.12s-2.37-12.16-6.14-17.01c-1.08-1.29-1.29-2.26-.86-4.09,1.72-6.57,3.34-12.92,5.27-21.85h-6.35c-.32,.43-.97,.86-1.94,1.51v51.56h.01Zm30.79-43.71c.11,.86,.11,1.72,.11,2.69,0,5.81-4.52,10.66-9.37,10.66-3.77,0-5.92-2.37-5.92-5.38,0-2.69,1.29-4.41,3.77-6.03,5.17-3.34,6.78-7.75,6.78-12.6,0-.65,.75-.75,1.08-.21,1.72,3.23,2.8,6.03,3.23,8.72h10.23v-8.18c0-2.26,0-3.34-.54-7.86,15.93,1.29,17.55,1.94,17.55,3.66,0,.86-.43,1.61-3.88,3.12v9.26h13.13c4.52-5.81,5.06-6.14,6.03-6.14,1.4,0,2.04,.43,9.04,6.89,2.91,2.69,3.44,3.77,3.44,4.74,0,2.58-1.83,3.01-5.49,2.69-2.58-.22-4.31-.11-6.24,.65-2.58,.97-4.2,1.62-8.29,3.55-.54,.32-1.08-.32-.86-.86,1.08-2.58,1.83-4.09,3.66-9.37h-37.46Zm21.74,17.65c6.14-7.97,6.68-8.4,7.64-8.4s1.4,.22,6.14,4.63c3.23,3.01,4.2,3.98,4.2,4.74s-.43,1.18-1.08,1.18h-32.73c-3.44,0-6.57,.11-10.87,.75l-.97-3.66c4.84,.54,8.83,.75,11.84,.75h15.83Z"/>
  </g>
  <g>
    <path d="M869.8,386.03c5.24,16.35,8.39,27.36,11.53,37.42,3.15-10.38,5.59-21.7,10.48-38.99l26.9-95.59c5.24-18.55,6.99-31.13,3.49-38.05-3.49-6.29-12.58-8.81-25.15-10.38-2.45,0-3.15-.31-3.15-4.4,0-3.77,.7-4.4,3.15-4.4,12.58,.63,30.39,1.26,44.02,1.26s25.16-.63,36.68-1.26c2.45,0,3.14,.63,3.14,4.4,0,4.09-1.05,4.4-3.49,4.4-10.48,1.57-18.17,4.72-24.46,10.69-5.94,6.92-10.83,19.18-16.77,37.73l-35.28,112.26c-9.78,30.82-11.53,39.31-16.42,55.66-22.71,8.81-25.16,9.75-26.55,9.75-1.05,0-2.1-.63-2.45-2.2-5.59-18.24-10.83-35.53-19.21-61.32l-26.55-81.76c-3.84-11.63-5.94-20.75-8.39-29.24-2.1,8.81-4.19,17.3-7.69,28.3l-26.2,81.13c-10.13,31.13-12.23,39.31-16.77,55.03-23.06,9.12-25.16,10.06-26.55,10.06s-2.1-.63-2.8-2.2c-5.59-19.81-10.48-36.79-18.17-61.32l-35.98-113.83c-6.29-19.5-11.18-32.7-17.12-39.31-5.24-5.97-8.73-8.18-23.06-9.43-2.45,0-3.15-.31-3.15-4.09,0-4.09,.7-4.72,3.15-4.72,16.07,.63,30.74,1.26,46.47,1.26s37.38-.63,52.4-1.26c2.45,0,3.14,.63,3.14,4.4,0,4.09-1.05,4.4-3.49,4.4-12.23,1.26-19.91,1.57-23.06,8.18-3.14,6.92,.7,20.12,6.99,40.56l29.35,96.85c5.24,17.61,7.69,27.04,10.13,37.11,3.14-10.06,4.54-20.12,10.13-37.42l23.06-72.95c6.29-19.5,7.69-27.67,11.18-39.31-3.49-8.49-5.94-18.24-11.53-24.53-5.59-6.29-9.78-7.23-23.06-8.49-2.8,0-3.49-.63-3.49-4.4s.35-4.4,3.49-4.4c15.72,.63,32.14,1.26,47.51,1.26s30.39-.63,46.12-1.26c2.79,0,3.14,.63,3.14,4.4s-.7,4.4-3.49,4.4c-13.97,1.26-18.52,1.57-21.66,8.18-3.5,6.92,0,16.35,7.69,40.25l31.8,97.17Z"/>
    <path d="M984.05,388.86c0,41.51,28.3,62.26,49.96,62.26s35.64-6.92,48.56-22.64c1.05-1.26,2.45-1.57,3.5-1.57s2.1,.63,3.14,1.26c1.4,.94,2.8,2.2,2.8,3.15,0,.63-.7,1.88-1.75,3.46-16.07,22.33-35.64,31.13-64.63,31.13-48.21,0-80.7-32.08-80.7-75.47s33.54-77.67,81.05-77.67,67.08,36.48,68.13,58.49c0,2.51,0,3.14-1.75,5.35-1.75,1.89-3.15,1.57-5.24,1.57-35.28-.94-70.57-1.26-101.66-.63-.71,2.82-1.41,5.97-1.41,11.31Zm68.48-23.58c2.8-.31,3.15-2.2,3.15-5.03-1.05-17.61-9.43-38.05-29.7-38.05-18.86,0-33.54,18.24-38.78,44.02,24.45,.63,40.87,.63,65.33-.94Z"/>
    <path d="M1137.77,272.2c0-11.32-1.05-20.44-2.45-25.78-1.4-5.66-5.94-7.55-11.53-7.23l-9.43,.63c-3.14,.31-3.84,0-4.19-3.46-.35-3.77,.35-4.09,3.5-4.72,14.32-2.51,40.53-8.8,57.64-13.83,2.45,0,4.19,.63,4.19,2.2-.7,23.58-1.75,46.54-1.75,77.35v116.34c0,19.18-.35,28.93,2.45,33.65,2.8,5.03,8.39,5.35,19.56,6.29,2.1,.31,2.45,.94,2.45,3.77,0,3.14-.7,3.46-2.8,3.46-12.92-.63-26.55-.94-38.08-.94-12.23,0-26.9,.31-39.83,.94-3.15,0-3.84-.63-3.84-3.46s.7-3.46,3.49-3.77c10.83-.94,15.02-1.26,17.82-6.29,2.8-5.35,2.8-15.09,2.8-33.65v-141.5Z"/>
    <path d="M1249.92,272.2c0-11.32-1.05-20.44-2.45-25.78-1.4-5.66-5.94-7.55-11.53-7.23l-9.43,.63c-3.14,.31-3.84,0-4.19-3.46-.35-3.77,.35-4.09,3.5-4.72,14.32-2.51,40.53-8.8,57.64-13.83,2.45,0,4.19,.63,4.19,2.2-.7,23.58-1.75,46.54-1.75,77.35v116.34c0,19.18-.35,28.93,2.45,33.65,2.8,5.03,8.39,5.35,19.56,6.29,2.1,.31,2.45,.94,2.45,3.77,0,3.14-.7,3.46-2.8,3.46-12.92-.63-26.55-.94-38.08-.94-12.23,0-26.9,.31-39.83,.94-3.15,0-3.84-.63-3.84-3.46s.7-3.46,3.49-3.77c10.83-.94,15.02-1.26,17.82-6.29,2.8-5.35,2.8-15.09,2.8-33.65v-141.5Z"/>
    <path d="M1398.74,349.87c-41.57-18.87-55.55-34.59-55.55-66.66s31.44-56.6,78.26-56.6c15.37,0,25.5,2.2,35.29,4.4,10.83,2.51,23.06,2.51,34.59,.94,0,16.04,2.45,36.48,3.84,53.14,0,1.57,0,2.52-3.49,3.15-3.84,.63-4.54-.31-5.24-1.89-13.62-28.93-35.28-49.68-63.24-49.68-23.76,0-41.92,15.41-41.92,39.62,0,14.15,9.43,27.36,38.78,40.25l18.87,8.18c49.61,21.69,67.08,35.85,67.08,73.27,0,42.45-34.59,67.92-93.28,67.92-24.45,0-47.51-4.72-67.08-11.01-5.24-17.29-9.78-37.1-12.23-52.51-.35-2.2-.35-4.4,3.84-5.03,3.84-.63,5.24,.31,5.94,1.88,15.72,31.76,42.97,56.6,73.37,56.6s50.66-18.87,50.66-45.28c0-23.9-15.72-36.16-51.01-52.51l-17.48-8.18Z"/>
    <path d="M1609.41,403.01c0,31.44-.35,35.85,3.49,42.14,3.49,6.29,12.93,6.6,27.25,7.86,2.45,.31,3.15,.94,3.15,4.09s-.7,3.77-3.49,3.77c-17.12-.31-35.29-.94-51.36-.94s-33.54,.63-48.91,.94c-2.1,0-2.8-.63-2.8-3.77s.35-3.77,2.45-4.09c13.28-1.26,20.96-1.26,25.16-7.86,4.19-7.23,3.84-20.75,3.84-42.14v-114.14c0-30.19,0-33.96-3.49-40.88-3.85-6.29-12.58-6.6-27.25-7.86-1.75,0-2.45-.63-2.45-4.4,0-3.46,.7-4.09,2.8-4.09,16.77,.31,35.28,1.26,50.66,1.26,16.42,0,34.24-.94,49.96-1.26,2.45,0,3.15,.63,3.15,4.4,0,3.46-1.05,3.77-3.15,4.09-13.27,1.26-21.31,1.57-25.15,7.86-4.19,7.23-3.84,21.07-3.84,40.88v114.14h-.02Z"/>
    <path d="M1808.2,374.4c-11.53-.63-26.55-1.26-39.83-1.26-14.67,0-28.65,.63-43.32,1.26l-13.28,33.02c-7.69,18.55-6.99,27.99-3.84,35.22,3.15,6.6,14.67,8.81,27.25,10.06,2.1,0,3.14,.63,3.14,4.09s-1.05,4.09-3.84,4.09c-12.93-.63-30.74-.63-43.67-.63-12.23,0-25.16,0-36.68,.63-3.15,0-3.85-.63-3.85-4.09s.7-4.09,3.85-4.09c9.43-1.26,15.37-5.35,20.61-9.75,6.99-6.29,13.63-17.92,21.31-36.79l41.92-101.88c16.42-39.62,19.57-49.37,25.16-66.04l27.6-11.32c2.45,0,3.84,.63,4.54,2.83,6.99,19.5,13.28,35.22,29,76.41l39.48,102.51c6.99,18.55,11.88,29.56,17.47,35.85,5.94,6.6,9.43,7.23,22.71,8.17,3.84,0,4.54,.63,4.54,4.09s-.7,4.09-4.54,4.09c-15.02-.31-34.59-.63-49.61-.63-13.62,0-34.24,.31-49.26,.63-2.44,0-2.79-.63-2.79-4.09s.7-4.09,2.79-4.09c13.28-.63,22.01-1.89,24.11-8.17,2.45-6.92,.35-15.72-6.29-33.02l-14.68-37.1Zm-25.85-67.61c-8.04-20.75-10.83-29.87-14.67-41.19-4.89,12.27-7.69,20.44-15.72,40.56l-22.36,55.66c11.53,.63,25.5,.63,38.78,.63,11.18,0,24.81,0,34.94-.63l-20.97-55.03Z"/>
  </g>
  <path class="cls-2" d="M557.86,270.03c0-9.71-.01-19.41-.05-29.12-.01-2.16-.23-2.3-2.36-2.29-14.75,.03-29.51,.06-44.26,.08-.71,0-1.42-.02-2.13,.02-1.03,.05-1.54-.45-1.68-1.45-.18-1.21-.39-2.43-.65-3.63-1.38-6.32-2.53-12.7-4.22-18.93-1.79-6.61-4-13.11-6.21-19.59-3.3-9.69-7.53-19-12.3-28.04-4.32-8.18-9.14-16.07-14.36-23.73-6.25-9.16-13.22-17.75-20.69-25.91-10.24-11.2-21.62-21.17-33.89-30.11-9.11-6.64-18.68-12.55-28.65-17.81-8.82-4.65-17.91-8.71-27.26-12.16-3.4-1.25-6.79-2.55-10.27-3.53-6.34-1.79-12.75-3.34-19.12-5.04-7.33-1.96-14.83-3.06-22.34-3.96-10.92-1.31-21.9-1.92-32.93-1.72-8.29,.15-16.55,.82-24.77,1.78-6.29,.73-12.51,2.02-18.74,3.2-7.82,1.48-15.5,3.59-23.06,6.06-11.01,3.6-21.74,7.92-32.12,13.12-10.49,5.26-20.53,11.26-30.12,18.01-8.69,6.12-16.93,12.79-24.66,20.08-8.35,7.87-16.21,16.18-23.29,25.21-6.64,8.45-12.78,17.25-18.21,26.54-4.67,8-8.89,16.2-12.6,24.69-3.73,8.55-7.01,17.25-9.63,26.2-1.27,4.34-2.56,8.69-3.57,13.1-1.15,5.04-2,10.15-2.95,15.23-.38,2.05-.75,2.4-2.79,2.39-.52,0-1.04-.02-1.55-.02-14.69-.01-29.38-.01-44.07-.03-2.02,0-2.28,.22-2.28,2.17v33.58H.02v33.97c0,1.62,.36,2,2.11,2,15.27,.01,30.54,.02,45.81,.01,2.29,0,2.32,.01,2.77,2.24,1.23,6.02,2.4,12.05,3.76,18.04,1.73,7.64,4.06,15.11,6.8,22.45,1.85,4.96,3.87,9.87,5.94,14.75,4.29,10.08,9.41,19.74,15.3,28.96,3.69,5.77,7.73,11.32,11.67,16.93,4.51,6.42,9.74,12.26,15,18.05,6.84,7.53,14.2,14.54,22.17,20.86,5.57,4.42,11.27,8.69,17.04,12.84,7.57,5.45,15.65,10.1,23.91,14.42,11.31,5.92,23.05,10.87,35.23,14.7,6.35,1.99,12.77,3.82,19.25,5.34,6.35,1.49,12.78,2.62,19.25,3.56,9.89,1.44,19.8,2.14,29.77,2.29,14.59,.23,29.1-.82,43.46-3.45,6.29-1.15,12.54-2.55,18.74-4.1,7.97-2,15.8-4.51,23.43-7.56,5.1-2.04,10.21-4.09,15.19-6.38,4.46-2.05,8.8-4.38,13.13-6.69,9.84-5.25,19.14-11.34,28.06-18.01,7.72-5.78,15.04-12.06,21.96-18.78,8.51-8.26,16.44-17.04,23.57-26.52,4.51-6,8.9-12.09,12.68-18.58,2.83-4.86,5.77-9.67,8.4-14.64,4.08-7.72,7.62-15.7,10.67-23.89,1.54-4.12,3.12-8.23,4.43-12.42,3.38-10.75,6-21.69,7.86-32.81,.25-1.52,.37-1.61,1.84-1.61,14.95,.01,29.89,.02,44.84,.01,4.12,0,3.77,.13,3.79-3.85,.03-12.19,0-24.35,0-36.52Z"/>
  <g>
    <g>
      <path d="M.07,274.41v-33.58c0-1.95,.26-2.17,2.28-2.17,14.69,.01,29.38,.02,44.07,.03,.52,0,1.03,.02,1.55,.02,2.05,.01,2.41-.34,2.79-2.39,.95-5.08,1.8-10.19,2.95-15.23,1-4.41,2.3-8.76,3.57-13.1,2.62-8.95,5.9-17.65,9.63-26.2,3.71-8.49,7.92-16.7,12.59-24.69,5.43-9.3,11.57-18.09,18.21-26.54,7.09-9.02,14.95-17.34,23.29-25.21,7.74-7.29,15.98-13.96,24.66-20.08,9.59-6.75,19.62-12.75,30.12-18.01,10.38-5.2,21.11-9.52,32.12-13.12,7.56-2.47,15.24-4.58,23.06-6.06,6.23-1.18,12.45-2.47,18.74-3.2,8.22-.96,16.47-1.63,24.77-1.78,11.02-.2,22,.41,32.93,1.72,7.5,.9,15,2,22.34,3.96,6.37,1.7,12.78,3.25,19.12,5.04,3.48,.98,6.87,2.28,10.27,3.53,9.35,3.45,18.44,7.51,27.26,12.16,9.97,5.26,19.53,11.17,28.65,17.81,12.27,8.94,23.65,18.91,33.89,30.11,7.47,8.16,14.44,16.75,20.69,25.91,5.22,7.65,10.04,15.54,14.36,23.73,4.77,9.04,9,18.35,12.3,28.04,2.21,6.48,4.42,12.98,6.21,19.59,1.69,6.23,2.85,12.61,4.22,18.93,.26,1.2,.47,2.41,.65,3.63,.15,1,.65,1.5,1.68,1.45,.71-.03,1.42-.01,2.13-.02,14.75-.03,29.51-.05,44.26-.09,2.13,0,2.35,.13,2.35,2.29,.03,9.71,.04,19.41,.05,29.12,.01,12.17,.02,24.33-.02,36.5-.01,3.99,.33,3.85-3.79,3.85-14.95,.01-29.89-.01-44.84-.01-1.47,0-1.58,.09-1.84,1.61-1.86,11.12-4.47,22.06-7.85,32.81-1.32,4.19-2.9,8.3-4.43,12.42-3.05,8.19-6.59,16.17-10.67,23.89-2.63,4.97-5.57,9.78-8.39,14.64-3.78,6.5-8.17,12.58-12.68,18.58-7.13,9.49-15.06,18.26-23.57,26.52-6.93,6.72-14.24,13-21.96,18.78-8.92,6.67-18.23,12.77-28.06,18.01-4.33,2.31-8.67,4.64-13.13,6.69-4.99,2.29-10.09,4.34-15.19,6.38-7.64,3.05-15.46,5.56-23.43,7.56-6.2,1.56-12.46,2.95-18.74,4.1-14.36,2.63-28.87,3.68-43.46,3.45-9.97-.16-19.88-.85-29.77-2.29-6.47-.95-12.9-2.07-19.25-3.56-6.48-1.52-12.9-3.34-19.25-5.34-12.18-3.83-23.91-8.77-35.23-14.7-8.26-4.32-16.34-8.97-23.91-14.42-5.77-4.16-11.47-8.42-17.04-12.84-7.97-6.32-15.33-13.34-22.17-20.86-5.26-5.79-10.49-11.63-15-18.05-3.94-5.61-7.99-11.15-11.67-16.93-5.89-9.22-11.01-18.89-15.3-28.96-2.08-4.88-4.09-9.78-5.94-14.75-2.74-7.33-5.06-14.81-6.8-22.45-1.36-5.99-2.53-12.02-3.76-18.04-.45-2.23-.49-2.24-2.77-2.24-15.27,.01-30.54,.01-45.81-.01-1.76,0-2.11-.38-2.11-2v-33.97s.05,.03,.07,.03Zm96.83,35.93v-.08H61.58c-1.56,0-1.95,.36-1.67,1.8,1.01,5.07,1.91,10.17,3.13,15.2,2.38,9.81,5.34,19.47,9.17,28.81,2.92,7.11,6.13,14.12,9.61,20.97,4.99,9.81,10.85,19.11,17.34,28.02,6.76,9.28,14.16,18,22.25,26.12,5.93,5.96,12.19,11.56,18.78,16.82,6.33,5.05,12.88,9.78,19.69,14.13,11.97,7.63,24.57,14.09,37.82,19.22,4.4,1.7,8.83,3.33,13.32,4.77,7.7,2.46,15.48,4.67,23.45,6.09,5.98,1.07,11.97,2.13,17.99,2.89,5.12,.64,10.31,.83,15.46,1.25,9.32,.77,18.62,.29,27.92-.27,8.07-.49,16.06-1.74,24.03-3.19,10.91-1.99,21.55-4.91,32.04-8.46,7.73-2.61,15.22-5.81,22.58-9.32,8.23-3.94,16.21-8.35,23.89-13.28,8.12-5.21,15.95-10.84,23.31-17.07,8-6.78,15.53-14.05,22.56-21.85,9.08-10.08,17.11-20.92,24.25-32.44,5.08-8.2,9.57-16.74,13.44-25.57,2.54-5.8,4.95-11.67,7.03-17.65,2.62-7.5,4.93-15.12,6.54-22.93,.84-4.05,1.68-8.11,2.5-12.16,.31-1.54,0-1.92-1.5-1.9-.84,.01-1.68,.08-2.52,.08-21.68,0-43.35,0-65.03-.01-1.03,0-2.07,.02-3.1-.01-1.95-.07-2.03-.02-2.53,1.84-2.24,8.39-5.08,16.55-8.74,24.44-4.54,9.78-9.92,19.04-16.43,27.63-7.49,9.89-16.06,18.77-25.74,26.55-14.89,11.97-31.51,20.71-49.75,26.37-10.42,3.23-21.07,5.17-31.95,6.02-15.54,1.21-30.88,.07-46.05-3.44-12.35-2.86-24.14-7.28-35.34-13.2-8.25-4.36-16.01-9.49-23.32-15.31-10.65-8.47-19.97-18.19-27.94-29.22-3.56-4.94-6.84-10.05-9.77-15.39-4.55-8.3-8.38-16.92-11.24-25.95-.9-2.83-1.68-5.71-2.53-8.55-.48-1.6-.84-1.84-2.5-1.82-.71,.01-1.42,.06-2.13,.06-11,0-22,0-33,0Zm364.01-71.55h0c10.42-.01,20.84-.01,31.25-.01,1.49,0,2.98,.04,4.46,0,1.36-.03,1.71-.48,1.45-1.84-.19-1.02-.45-2.02-.68-3.03-1.28-5.74-2.4-11.53-3.87-17.22-2.64-10.29-6.2-20.29-10.43-30.03-6.31-14.52-13.98-28.28-23.26-41.13-4.89-6.77-10.06-13.31-15.65-19.52-6.89-7.65-14.23-14.86-22.13-21.46-13.3-11.12-27.58-20.75-43.15-28.45-9.4-4.65-18.95-8.89-28.94-12.15-6.77-2.21-13.57-4.24-20.51-5.84-8.33-1.93-16.72-3.47-25.22-4.37-7.79-.83-15.59-1.52-23.42-1.54-14-.04-27.9,1.17-41.69,3.67-9.88,1.79-19.6,4.21-29.13,7.32-7.81,2.54-15.46,5.5-22.94,8.91-15.97,7.28-30.87,16.31-44.68,27.12-8.92,6.99-17.29,14.59-25.05,22.88-7,7.48-13.58,15.28-19.48,23.65-9.68,13.74-17.93,28.28-24.28,43.87-3.01,7.37-5.74,14.84-7.89,22.5-1.43,5.1-2.7,10.25-3.93,15.41-.75,3.14-1.29,6.33-1.91,9.5-.24,1.21,.1,1.62,1.38,1.73,.26,.02,.52,.01,.78,.01,23.29,0,46.59,.01,69.88,.01,1.89,0,2.23-.27,2.72-2.05,.6-2.18,1.13-4.39,1.82-6.54,2.36-7.33,5.21-14.47,8.56-21.41,4.1-8.48,9-16.46,14.67-23.95,7.6-10.05,16.31-19.05,26.17-26.93,10.06-8.04,20.93-14.72,32.74-19.88,6.7-2.93,13.55-5.43,20.6-7.37,6.8-1.87,13.7-3.31,20.72-4.06,3.92-.42,7.84-.93,11.78-1.12,12.59-.61,25.06,.39,37.43,2.9,8.33,1.69,16.44,4.09,24.34,7.2,10.63,4.18,20.65,9.51,30.07,16.01,11.42,7.89,21.63,17.07,30.41,27.8,9.19,11.22,16.78,23.42,22.4,36.84,2.8,6.7,5.19,13.52,7,20.55,.49,1.91,.65,2.03,2.66,2.03,11.65,0,23.3,0,34.95,0Zm-39.62,36.12c.27-78.78-63.45-143.03-142.7-142.81-78.63,.22-142.02,63.27-142.02,142.34s63.7,142.42,142.52,142.41c79.25,0,142.21-64.52,142.2-141.94Zm-351.48-29.4v-.08H8.86c-1.66,0-1.96,.35-1.96,2.1,.03,7.38,.08,14.75,.06,22.13-.03,10.67-.1,21.35-.16,32.02,0,1.29,.36,1.72,1.69,1.84,.32,.03,.65,.01,.97,.01,38.95,0,77.9,.01,116.85,.01,1.55,0,3.11,.03,4.66-.04,1.27-.06,1.55-.49,1.35-1.76-.43-2.75-.79-5.5-1.29-8.24-.9-4.99-1.09-10.03-1.24-15.07-.32-10.45,.57-20.81,2.49-31.08,.29-1.57-.06-1.95-1.72-1.94-1.55,.01-3.1,.09-4.66,.09-18.69,.02-37.39,0-56.09,0Zm418.25,.02v-.08h-60.73c-1.92,0-2.05,.23-1.71,2.19,.59,3.44,1.24,6.88,1.61,10.35,1.13,10.84,1.15,21.7,.04,32.54-.34,3.34-.8,6.68-1.42,9.98-.57,2.98-.64,3.04,2.35,3.04h115.84c1.55,0,3.1,.01,4.66-.02,2.08-.04,2.2-.16,2.21-2.21v-.58c.01-16.88,.01-33.76,.02-50.65,0-.71-.01-1.42-.02-2.13-.04-2.52-.08-2.55-2.69-2.5-1.88,.04-3.75,.07-5.63,.07-18.18,0-36.35,0-54.53,0Z"/>
      <path d="M196.79,422.72c.99,.18,1.54,.21,2.02,.39,2.91,1.08,5.8,2.19,8.69,3.29,.71,.27,1.48,.46,1.56,1.59-.46,.03-.81,.1-1.16,.07-2-.18-2.77,.28-3.14,2.25-.5,2.67-.85,5.36-1.26,8.04-.58,3.76-1.16,7.53-1.72,11.29-.06,.41-.01,.83-.01,1.78,.8-.7,1.32-1.03,1.67-1.48,4.22-5.48,8.41-10.99,12.61-16.49,.24-.31,.45-.64,.69-.94,.98-1.2,1.27-1.26,2.84-.64,1.52,.6,1.73,.86,1.55,2.45-.75,6.81-1.53,13.62-2.29,20.43-.09,.8-.13,1.62-.23,2.85,.7-.48,1.12-.64,1.35-.94,3.35-4.6,6.68-9.22,9.99-13.84,.45-.63,.81-1.32,1.15-2.02,.82-1.67,.57-2.74-.91-3.89-.54-.42-1.28-.66-1.28-1.62,1.33-.57,2.15,.56,3.17,.89,1.17,.37,2.31,.83,3.45,1.3,.99,.42,2.36,.21,2.96,1.77-.55,.16-1.01,.39-1.47,.4-1.62,.04-2.88,.8-3.83,2.01-2.2,2.79-4.35,5.62-6.48,8.47-3.29,4.4-6.53,8.84-9.79,13.26-.6,.82-1.22,1.48-2.42,1.07-1.51-.52-1.9-1.1-1.72-2.75,.84-7.32,1.67-14.64,2.48-21.96,.05-.48-.05-.98-.1-1.92-.66,.55-1.08,.79-1.35,1.15-4.5,5.84-8.98,11.69-13.46,17.54-1.24,1.61-1.66,1.79-3.02,1.28-1.57-.59-1.71-.92-1.49-2.6,.8-6.22,1.57-12.44,2.35-18.66,.27-2.11,.56-4.23,.81-6.34,.1-.9,.11-1.8,.14-2.71,.04-1.29-.31-2.41-1.35-3.28-.32-.27-.48-.7-1-1.49Z"/>
      <path d="M308.8,439.45c.24,.79,.43,1.21,.49,1.63,.25,1.92,.46,3.85,.68,5.78,.03,.26,.06,.52,.06,.77-.02,.61-.13,1.3-.88,1.23-.38-.03-.85-.51-1.05-.91-.53-1.1-.79-2.35-1.43-3.37-2.15-3.45-6.44-4.39-9.63-2.23-2.64,1.79-3.12,5.99-.77,8.14,1.06,.97,2.44,1.68,3.78,2.26,1.9,.82,3.9,1.37,5.84,2.1,1.03,.39,2.02,.87,3,1.36,5.65,2.86,6.71,11.84,.5,15.54-3.28,1.95-6.78,2.44-10.46,2-1.38-.16-2.67-.19-4,.28-1.27,.45-1.68,.14-1.8-1.14-.21-2.38-.41-4.76-.61-7.14-.01-.13-.08-.29-.03-.38,.22-.42,.47-.82,.72-1.23,.37,.27,.92,.47,1.09,.84,.4,.88,.57,1.86,.93,2.75,1.75,4.36,6.77,6.1,10.8,3.92,3.6-1.95,3.97-6.88,.67-9.42-1.31-1.01-2.88-1.73-4.41-2.39-1.6-.69-3.32-1.09-4.94-1.72-1.13-.45-2.23-1.02-3.28-1.64-5.45-3.2-4.95-12.27,1.47-15.27,2.31-1.08,4.71-1.39,7.19-1.24,1.98,.14,3.96,.64,6.07-.52Z"/>
      <path d="M348.22,461.37c-.41,.72-.5,1.12-.72,1.22-2.73,1.15-5.48,2.26-8.24,3.34-.25,.1-.59-.05-1.28-.13,.52-.65,.79-1.13,1.19-1.47,1.27-1.07,1.92-2.41,1.93-4.06,.02-2.71,.08-5.42,.05-8.14-.04-3.55-.15-7.1-.24-10.65-.08-3.1-.18-6.2-.22-9.29-.01-.68,.05-1.48,.4-2.01,.96-1.43,2.32-1.44,3.52-.09,4.25,4.78,8.46,9.59,12.71,14.38,1.93,2.17,3.88,4.33,5.86,6.46,1.26,1.36,2.65,2.51,4.73,1.92,.16-.05,.38,.04,.56,.11,.11,.04,.19,.16,.33,.29-.06,.87-.77,1.11-1.41,1.36-2.22,.89-4.45,1.73-6.67,2.62-1.02,.41-1.99,.93-3.02,1.3-.34,.12-.8-.11-1.2-.18,.17-.37,.29-.78,.53-1.1,.18-.25,.54-.35,.78-.57,.9-.82,1.11-1.57,.37-2.56-1.35-1.81-2.84-3.51-4.3-5.24-.5-.58-1.11-.46-1.77-.17-2.43,1.05-4.88,2.06-7.32,3.08-1.93,.81-2.1,1.02-1.95,3.21,.1,1.54,.17,3.1,.49,4.6,.38,1.78,1.12,2.15,2.96,1.94,.5-.04,.98-.08,1.93-.17Zm-5.51-24.97c-.16,.74-.35,1.2-.35,1.67,.07,3.66,.16,7.33,.28,10.99,.04,1.16,.55,1.54,1.64,1.12,2.22-.87,4.41-1.8,6.58-2.79,1.01-.46,1.05-.99,.35-1.79-2.42-2.75-4.84-5.51-7.27-8.25-.28-.31-.66-.51-1.23-.95Z"/>
      <path d="M312.94,439.25c.55-.48,.75-.79,1.02-.85,3.62-.93,7.24-1.84,10.87-2.72,.19-.05,.44,.15,.65,.23,.12,.87-.5,1.03-.98,1.32-1.56,.91-1.85,1.37-1.48,3.15,.52,2.53,1.18,5.02,1.8,7.53,1.29,5.2,2.63,10.39,3.9,15.6,.56,2.3,1.01,2.72,3.41,2.77,.25,.01,.51,.04,.76,.1,.11,.03,.19,.15,.48,.4-.31,.27-.56,.67-.88,.76-3.5,.89-7.02,1.75-10.54,2.57-.42,.1-.91-.06-1.34-.1,.01-1.05,.68-1.1,1.18-1.34,1.56-.75,1.93-1.36,1.54-3.08-.99-4.41-2.07-8.8-3.12-13.2-.69-2.89-1.38-5.78-2.08-8.66-.14-.56-.35-1.11-.51-1.67-.49-1.72-1.53-2.65-3.4-2.46-.29,0-.59-.17-1.28-.35Z"/>
      <path d="M255.17,467.77c-.2,.41-.32,.91-.63,1.23-2.35,2.49-5.19,3.86-8.67,3.27-4.47-.75-8.01-2.75-9.66-7.32-1.72-4.77,.32-13.6,6.68-16.09,5.35-2.1,11.92,.42,13.47,6.11,.39,1.45,.32,3.07,.26,4.6-.04,1.04-.7,1.39-1.77,1.19-3.54-.67-7.08-1.37-10.62-2.05-.38-.07-.77-.12-1.15-.14-1.27-.08-1.58,.09-1.63,1.3-.08,1.8-.17,3.63,.03,5.41,.44,4.03,4.46,6.54,8.28,5.18,1.12-.4,2.12-1.17,3.15-1.82,.62-.39,1.18-.87,1.77-1.31,.15,.15,.32,.3,.49,.44Zm-3.41-12.8c-.06-.42-.09-1.27-.29-2.08-.42-1.7-1.2-3.21-3.1-3.6-1.84-.38-3.14,.73-4.08,2.07-.91,1.31-1.52,2.82-2.21,4.28-.42,.88,.12,1.36,.92,1.54,1.82,.41,3.64,.85,5.49,1.11,2.91,.4,3.22,.07,3.27-3.32Z"/>
      <path d="M271.75,474.03c-.83,.23-1.27,.51-1.63,.42-3.23-.74-6.63-.2-9.83-1.12-.02-.16-.05-.32-.07-.48,.48-.21,.96-.44,1.45-.62,.95-.35,1.47-1,1.53-2.02,.01-.13,.02-.26,.03-.39,.53-8.24,1.05-16.49,1.59-24.73,.09-1.38-.28-2.41-1.74-2.84-.3-.09-.54-.42-.73-1.02,.6-.05,1.19-.13,1.79-.13,1.61,.02,3.22,.08,4.83,.13,1.16,.03,1.53,.37,1.51,1.51-.02,.9-.12,1.8-.18,2.71-.48,7.21-.97,14.42-1.46,21.63-.06,.84-.15,1.67-.26,2.5-.28,2.17,.09,2.81,2.12,3.72,.22,.1,.4,.28,1.05,.73Z"/>
      <path d="M287.39,473.91c-.44,.27-.7,.56-.96,.56-3.23,.04-6.47,.05-9.7,.04-.26,0-.52-.27-1.03-.55,.58-.31,.92-.58,1.31-.7,1.23-.38,1.74-1.25,1.79-2.47,.01-.32,.01-.65,0-.97-.14-7.24-.28-14.49-.42-21.73-.01-.71-.04-1.42-.04-2.13,0-1.44-.42-2.54-2.03-2.85-.26-.05-.48-.34-1.05-.78,.76-.24,1.19-.46,1.63-.5,1.67-.15,3.35-.24,5.02-.35,1.49-.1,1.78,.25,1.8,1.75,.06,6.46,.17,12.92,.24,19.39,.03,2.26,0,4.53,0,6.79,0,3.02,.01,3.03,2.8,3.94,.17,.05,.28,.23,.64,.56Z"/>
      <path d="M115.51,283.18c-.15,2.02-1.42,3.21-2.71,4.18-4.12,3.09-12.19,2.92-15.2-3.7-1.82-4.02-1.19-10.77,3.61-13.64,1.88-1.13,3.98-1.56,6.15-1.36,3.99,.36,7,2.2,8.42,6.1,.39,1.07,.57,2.26,.68,3.4,.16,1.75-.45,2.34-2.23,2.34-3.62-.01-7.24-.05-10.86-.06-.81,0-1.94-.36-2.23,.6-.19,.64,.23,1.63,.66,2.27,2.07,3.14,6.31,3.58,8.83,.86,1.44-1.56,3.01-1.32,4.88-.99Zm-9.06-11.26c-2.1,.19-3.87,1.09-4.97,3.08-.83,1.51-.48,2.16,1.24,2.19,2.58,.05,5.17,.04,7.76,.02,1.52-.01,2.03-.84,1.3-2.12-1.15-2-2.9-3.07-5.33-3.17Z"/>
      <path d="M27.91,289.23c-2.57-.15-5.16-.84-6.97-3.17-.58-.75-.96-1.68-1.28-2.58-.12-.32,.07-.94,.34-1.17,.8-.69,3.23-.31,3.92,.53,.16,.2,.28,.43,.42,.65,.17,.27,.36,.54,.51,.83,1.02,2,6.45,1.95,7.74-.29,.87-1.51,.74-3.3-.62-4.37-.69-.55-1.53-.95-2.37-1.25-2.07-.74-4.19-1.33-6.25-2.08-2.56-.94-3.77-3.04-3.81-5.57-.04-2.64,1.06-4.93,3.63-6.16,3.55-1.71,7.09-1.85,10.56,.25,1.44,.88,2.41,2.15,2.91,3.74,.32,1.02,.03,1.46-1.03,1.62-1.55,.24-2.81,.04-3.84-1.49-1.61-2.4-5-2.7-6.98-.85-1.53,1.42-1.57,3.42,.06,4.71,.84,.66,1.88,1.1,2.9,1.48,1.93,.72,3.98,1.18,5.85,2.02,3.57,1.61,4.73,5.6,2.75,8.97-1.83,3.11-4.75,4.18-8.44,4.18Z"/>
      <path d="M56.49,270.6c.99-.55,1.78-1.15,2.67-1.44,5.91-1.98,11.35,1.77,11.12,8.12-.12,3.22-.04,6.46-.01,9.69,0,.73,.08,1.5-.72,1.83-.98,.4-2.07,.55-2.96-.12-.36-.27-.5-1.01-.51-1.54-.03-2.97,.02-5.94,.04-8.91,0-.45,.01-.91-.02-1.36-.11-2.02-.85-3.66-2.88-4.39-2.19-.79-4.23-.51-5.89,1.22-1.18,1.24-1.41,2.9-1.45,4.51-.06,2.9,.01,5.81,.04,8.72,.01,.78,.21,1.78-.71,1.99-.88,.19-1.9,0-2.79-.24-.29-.08-.55-.84-.55-1.3,0-5.36,.04-10.72,.09-16.08,.01-.87-.26-1.88,.87-2.33,.97-.39,2.31,.05,3.06,.97,.16,.19,.34,.37,.6,.66Z"/>
      <path d="M84.68,289.2c-5.65,.06-9.41-3.37-9.85-9.02-.16-2.01-.06-4,.77-5.9,2.18-5.01,7.35-6.29,11.45-5.42,2.71,.58,4.7,2.07,6.07,4.43,.67,1.15,.4,1.69-.89,1.8-1.51,.13-2.78,.02-3.91-1.41-2.14-2.71-6.54-2.3-8.28,.7-1.68,2.87-1.8,5.93-.15,8.88,1.82,3.27,6.31,3.7,8.65,.77,1.16-1.45,2.58-1.28,4.03-1.22,.89,.04,1.1,.8,.49,1.76-1.75,2.8-4.19,4.52-7.6,4.63-.26,.01-.52,0-.78,0Z"/>
      <path d="M42.61,278.87v-7.93c0-.71-.13-1.63,.69-1.82,.89-.21,1.93-.21,2.78,.09,.37,.13,.54,1.22,.55,1.87,.04,4.25,0,8.51,0,12.76,0,1.16,.06,2.32,.06,3.48,0,1.36-.55,1.79-2.14,1.77-1.54-.02-1.99-.51-1.97-1.92,.03-2.77,.01-5.54,.01-8.31,0,.01,.01,.01,.02,.01Z"/>
      <path d="M44.63,266.13c-1.35-.02-2.62-1.29-2.62-2.62,.01-1.33,1.29-2.57,2.67-2.56,1.32,.01,2.63,1.31,2.62,2.62-.01,1.29-1.36,2.58-2.67,2.56Z"/>
      <path d="M467.96,275.46c.1-2.43,.25-4.81,1.05-7.1,1.54-4.43,4.16-6.29,8.85-6.33,.58,0,1.16,.01,1.74,.03,4.13,.16,6.9,2.22,8.18,6.2,1.55,4.82,1.57,9.65-.07,14.46-1.35,3.93-4.12,5.98-8.25,6.1-.52,.01-1.03,.01-1.55,.01-5.01-.04-8.15-2.51-9.19-7.44-.41-1.94-.51-3.95-.76-5.93Zm16.8,.17c-.32-2.03-.45-4.04-.97-5.95-.8-2.92-3.03-4.32-6-4.07-2.64,.22-4.36,2.06-4.95,4.9-.68,3.29-.51,6.55-.06,9.83,.37,2.71,2.1,4.56,4.53,4.83,3.35,.38,5.51-.72,6.41-3.65,.57-1.89,.7-3.92,1.04-5.89Z"/>
      <path d="M531.3,274.66c.51,.45,.82,.77,1.17,1.02,3.17,2.2,4.11,5.23,2.76,8.79-.51,1.34-1.48,2.28-2.63,3.02-3.67,2.36-9.68,2.16-13.27-.37-1.33-.94-2.18-2.2-2.71-3.69-.57-1.59-.01-2.24,1.73-2.22,1.3,.01,2.13,.52,2.77,1.69,1.53,2.78,5.53,3.81,8.28,2.17,1.56-.93,2.38-2.4,2.21-4.24-.16-1.75-1.15-3.06-2.82-3.6-1.27-.41-2.64-.55-3.98-.71-1.27-.16-1.83-.65-1.8-1.78,.04-1.19,.58-1.76,1.85-1.7,1.45,.07,2.83-.06,4.14-.76,1.25-.67,1.95-1.69,1.95-3.11,0-1.5-.74-2.57-2.04-3.28-2.03-1.12-5.78-.97-7.39,1.76-.76,1.29-2.72,1.78-4.02,1.16-.79-.37-.94-1.15-.35-2.15,1.33-2.27,3.15-3.91,5.84-4.41,3.12-.59,6.14-.53,9.05,1.01,4.05,2.15,4.48,8.59,.18,10.63-.28,.1-.48,.38-.92,.77Z"/>
      <path d="M452.25,285.07c.61,.05,1.22,.15,1.83,.15,2.78,0,5.56-.05,8.34-.04,1.3,0,1.71,.42,1.72,1.56,.01,1.36-.52,1.95-1.81,1.95-5.24-.01-10.47-.03-15.71-.05-.77,0-1.59,.09-2.03-.78-.37-.73-.14-1.96,.66-2.65,1.21-1.07,2.53-2.01,3.77-3.04,1.9-1.56,3.85-3.06,5.63-4.75,1.2-1.15,2.2-2.53,3.15-3.91,.46-.66,.76-1.51,.9-2.32,.35-1.95,.07-3.87-1.68-5.04-1.7-1.14-3.68-1.18-5.57-.33-1.19,.54-1.79,1.62-2.24,2.8-.62,1.64-2.37,2.38-4.02,1.71-.76-.31-.84-.9-.64-1.6,1.22-4.2,4.2-6.61,8.22-6.7,2.28-.05,4.51-.12,6.59,1.09,2.66,1.55,4.16,4.41,3.86,7.48-.21,2.13-1.01,3.99-2.32,5.66-2.09,2.67-4.59,4.9-7.31,6.9-.54,.4-1.04,.86-1.56,1.29,.09,.21,.15,.42,.22,.62Z"/>
      <path d="M501,284.98c.66,.08,1.31,.22,1.97,.22,2.71,.02,5.43-.02,8.14-.01,1.39,.01,1.91,.47,1.93,1.61,.02,1.08-.49,1.71-1.58,1.8-.7,.06-1.42-.01-2.13-.01-4.53,0-9.05,.01-13.58,.02-.83,0-1.73,.21-2.2-.78-.42-.9-.08-2.21,.84-2.95,1.91-1.55,3.89-3,5.77-4.58,1.63-1.37,3.26-2.77,4.7-4.32,1.49-1.61,2.79-3.4,2.77-5.81-.01-2.25-.88-3.9-2.68-4.49-1.93-.63-4.5-.7-6.05,1.27-.38,.49-.58,1.13-.79,1.73-.56,1.59-2.73,2.4-4.11,1.52-.67-.43-.65-1.07-.45-1.72,.91-2.95,2.59-5.24,5.72-6.05,2.6-.67,5.25-.71,7.83,.2,3.33,1.18,5.34,4.35,5.02,7.89-.18,2.05-.98,3.88-2.21,5.5-2.17,2.86-4.85,5.18-7.69,7.34-.44,.34-.88,.69-1.32,1.03,.03,.19,.06,.39,.1,.59Z"/>
      <path d="M374.98,218.55c-11.46-14.37-27.16-23.13-45.4-25.33-15.38-1.86-29.32,1.31-37.24,4.89-4.54,2.05-10.12,6.12-15.75,10.85-4.12-3.82-10.04-7.62-16.7-10.64-7.36-3.33-18.96-7.24-32.43-6.89-19.97,.51-37.13,10.34-49.63,28.4-17.69,25.58-14.27,48.22-8.29,62.71,5.34,12.93,13.51,21.64,16.35,24.41-.07,3.78,1.23,7.39,3.74,10.23l1.21,1.37c2.66,3.01,6.34,4.81,10.36,5.06,.32,.02,.64,.03,.96,.03,.61,0,1.21-.05,1.8-.12-.23,3.85,.99,7.78,3.74,10.89l1.21,1.37c2.97,3.37,7.13,5.09,11.31,5.09,.61,0,1.22-.05,1.83-.12-.25,4.02,1.08,7.89,3.73,10.89l1.21,1.37c2.66,3.01,6.34,4.81,10.36,5.06,.32,.02,.64,.03,.96,.03,.61,0,1.21-.05,1.8-.12-.23,3.85,.99,7.78,3.74,10.89l1.21,1.37c2.97,3.37,7.13,5.09,11.31,5.09,3.54,0,7.1-1.24,9.96-3.77l7.79-6.87,9.46,9.31c.17,.17,.36,.32,.55,.46,1.7,1.21,4.78,2.53,8.42,2.53,3.14,0,6.7-.98,10.15-3.86,4.79-3.99,6.36-9.33,6.8-13.38,4.23-.18,9.24-1.85,12.82-6.98,2.72-3.9,3.8-7.74,4.03-10.96,.15,0,.3,.01,.45,.01,5.92,0,10.45-1.74,13.49-5.21,2.92-3.32,3.75-7.45,3.8-10.97,.84,.1,1.67,.16,2.47,.16,3.33,0,6.26-.9,8.79-2.69,4.24-3.01,6.15-7.83,6.99-11.85,.54-.17,1.05-.43,1.51-.8,12.28-9.91,21.09-24.62,24.17-40.36,2.52-12.88,2.31-32.31-13.04-51.55Zm-173.2,95.92c-1.58-.1-3.03-.8-4.06-1.97l-1.21-1.37c-1.04-1.17-1.55-2.69-1.45-4.28s.8-3.03,1.97-4.06l10.75-9.49c1.08-.95,2.45-1.47,3.89-1.47,.13,0,.25,0,.38,.01,1.58,.1,3.03,.8,4.06,1.97l1.21,1.37c1.04,1.17,1.55,2.69,1.45,4.28-.1,1.58-.8,3.03-1.97,4.06h0l-10.74,9.5c-1.18,1.04-2.69,1.55-4.28,1.45Zm14.01,15.26l-1.21-1.37c-2.16-2.44-1.92-6.18,.52-8.34l10.75-9.49c1.12-.99,2.52-1.48,3.91-1.48,1.64,0,3.27,.67,4.43,1.99l1.21,1.37c2.16,2.44,1.92,6.18-.52,8.34l-10.75,9.49c-2.44,2.16-6.18,1.93-8.34-.51Zm22.14,19.2c-1.58-.1-3.03-.8-4.06-1.97l-1.21-1.37c-1.04-1.17-1.55-2.69-1.45-4.28s.8-3.03,1.97-4.06l10.75-9.49c1.08-.95,2.45-1.47,3.89-1.47,.13,0,.25,0,.38,.01,1.58,.1,3.03,.8,4.06,1.97l1.21,1.37c1.04,1.17,1.55,2.69,1.45,4.28-.1,1.58-.8,3.03-1.97,4.06h0l-10.75,9.49c-1.17,1.04-2.69,1.55-4.27,1.46Zm30.28,8.77l-7.93,7c-2.44,2.16-6.18,1.92-8.34-.52l-1.21-1.37c-2.16-2.44-1.92-6.18,.52-8.34l10.75-9.49c1.12-.99,2.52-1.48,3.91-1.48,1.64,0,3.27,.67,4.43,1.99l1.21,1.37c1.36,1.54,1.76,3.59,1.28,5.43-.01,.01-1.03,1.94-4.62,5.41Zm81.81-42.03c-1.9,1.34-4.88,1.29-8.84-.12l-38.21-37.33c-1.81-1.77-4.71-1.73-6.48,.07-1.77,1.81-1.73,4.71,.08,6.48l37.99,37.11c.46,2.28,.8,6.5-1.16,8.71-2,2.26-6.29,2.32-9.98,1.84l-37.85-37.64c-1.79-1.78-4.7-1.78-6.48,.02-1.78,1.79-1.78,4.7,.02,6.48l38.05,37.83c.23,1.39,.34,4.57-2.34,8.42-2.36,3.39-5.9,3.25-7.54,2.96l-39.59-39.38c-1.79-1.78-4.7-1.78-6.48,.02-1.78,1.79-1.78,4.7,.02,6.48l39.28,39.07c.05,2.2-.31,6.63-3.64,9.41-3.34,2.79-6.26,1.55-7.17,1.04l-9.33-9.18c2.92-5.4,2.36-12.29-1.93-17.15l-1.21-1.37c-3.41-3.86-8.37-5.55-13.13-4.97,.24-4.02-1.08-7.88-3.73-10.88l-1.21-1.37c-2.66-3.01-6.34-4.81-10.36-5.06-.93-.06-1.86-.02-2.77,.08,.23-3.84-.99-7.78-3.74-10.89l-1.21-1.37c-3.41-3.86-8.37-5.55-13.13-4.97,.24-4.02-1.08-7.88-3.73-10.88l-1.21-1.37c-2.66-3.01-6.34-4.81-10.36-5.06s-7.9,1.07-10.91,3.73l-10.75,9.49c-.53,.47-1,.97-1.46,1.5-3.28-3.75-8.19-10.24-11.62-18.68-7.28-17.92-4.77-35.98,7.48-53.69,10.92-15.78,25.16-24.01,42.32-24.45,18.35-.49,34.63,8.1,41.96,14.47-10.67,9.8-20.02,20.03-20.86,20.96-4.24,4.53-11.1,13.43-9.65,22.29,.54,3.28,2.49,7.89,8.76,11.27,13.38,7.21,23.76-1.46,27.68-7.42l15.28-15.56,62.91,59.8c-.24,2.83-1.12,7.39-3.77,9.26Zm11.08-14.95l-67.19-63.87c-.89-.84-2.02-1.26-3.16-1.26s-2.37,.46-3.27,1.37l-18.77,19.12c-.23,.23-.44,.51-.62,.79-1.04,1.64-6.68,9.58-15.84,4.65-3.62-1.95-3.95-4-4.07-4.68-.69-4.24,3.51-10.5,7.32-14.57l.05-.05c7.46-8.22,29.29-30.66,40.56-35.75,10.96-4.96,47.66-12.33,71.7,17.8,22.55,28.25,10.24,60.47-6.71,76.45Z"/>
    </g>
    <g>
      <path d="M107.66,183.57c-.24-.6-.42-.91-.79-1.1-.27-.14-.4-.13-1.12,.1-.46,.14-.51,.16-.61,.11-.17-.09-.1-.31-.04-.41,1.58-3.02,5.92-3.48,6.73-3.05,.47,.25,.18,.95-.05,1.56-.05,.19-.09,.42-.13,.83-.8,11.63-.82,11.92-2.24,16.17,1.19,.67,6,3.31,7.27,3.17,1.88-.25,2.64-1.52,3.48-3.13,1.81-3.45,3.07-8.22,3.13-8.83,.08-.73,.12-.96,.52-1.73,.3-.57,2.27-2.78,3.78-1.99,.34,.18,.67,.35,.46,2.46-.18,2.13-2,5.7-2.71,7.04-2.71,5.16-4.92,8.49-7.24,9.32-2.15,.75-5.97-1.25-9.05-2.86-.8-.42-4.39-2.39-5.13-2.77-1.54-.81-6.3-3.3-7.7-2.92-.7,.19-.82,.26-1.93,1-.07,.05-.17,.08-.24,.05-.23-.12-.06-1.1,.36-1.91,1.35-2.58,4.45-4.16,5.49-3.62,.3,.16,.45,.36,.76,.83,.99,1.37,5.88,4.28,7.58,5.26,.91-8.01,.47-10.76-.58-13.58Zm1.34-12.5c1.51,.79,2.15,2.66,1.32,4.24-.81,1.54-2.72,2.25-4.29,1.42-1.68-.88-2.13-2.95-1.3-4.53,.84-1.6,2.86-1.86,4.27-1.13Zm-2.58,4.93c1.17,.62,2.56,.02,3.14-1.09,.61-1.17,.12-2.5-.96-3.06-.97-.51-2.48-.4-3.1,.77-.6,1.13-.36,2.71,.92,3.38Z"/>
      <path d="M120.15,156.79c.18-.1,1.1-.61,1.76-1.39,1.43-1.71,5.18-6.67,5.23-7.91,.01-.14-.01-.75-.03-.91,.01-.24,.07-.38,.19-.53,.61-.73,3.19-2.22,4.38-1.22,.81,.68,.16,1.52-1.07,3.1-.49,.58-5.18,7.85-5.47,8.55-.04,.11-.33,.81-.4,.9-.56,.67-4.62,1.81-6.25,.45-.03-.02-.17-.15-.18-.2,0-.11,1.56-.68,1.84-.84Zm19.85,17.73c1.07-3.1,2.14-7.93,.71-12.88-1.64-5.71-4.89-9.91-4.91-9.93-.09-.07-.2-.12-.32,.03-.17,.2-5.69,8.51-6.39,11.77-.29,1.23-.31,1.37-.5,1.6-.46,.55-4.35,1.84-6.26,.24-.17-.15-.44-.36-.24-.6,.05-.06,.47-.15,.5-.12,.58-.11,1.64-.25,2.9-1.76,1.72-2.06,8.36-12.3,8.5-12.82,.06-.25-.04-1.31,0-1.53,.01-.24,.06-.49,.26-.72,.73-.87,4.49-1.42,5.28-.77,.52,.44,.38,.96,.2,1.89-.2,.77-.03,1.21,.3,1.88,5.88,11.13,4.16,18.32,.28,23.96l-.31-.24Z"/>
      <path d="M162.55,118.71c-.77,.74-7.19,7.03-7.71,7.59-.25,.29-.54,.9-.78,1.09-1.16,.91-5.39,.41-6.16-.58-.12-.15-.04-.36,.08-.45,.18-.14,1.02-.17,1.43-.25,.5-.1,1.35-.48,2.61-1.45,1.52-1.19,5.59-5.07,6.48-6.77,.57-1.12,.6-1.33,1.1-1.72,.81-.63,3.77-1.07,4.4-.26,.61,.76,.23,1.15-1.45,2.8Zm9.4,1.98c-.51,.4-2.84,2.02-3.29,2.37-.93,.72-2.99,2.32-4.57,3.75,.26,.09,.6,.16,.76,.36,.21,.27-.07,1.2-.04,1.42,.08,.66,1.52,3.42,1.74,3.97,1.57,3.86,3.64,11.08-2.91,17.71l-.26-.33c2.96-4.94,2.01-9.62,1.18-12.28-.87-2.72-2.39-5.53-3.01-6.34-.26-.33-.71-.6-1.23-.77-1.26,1.27-4.4,4.58-5.12,6-.21,.4-.61,1.19-.85,1.38-.93,.72-4.97,.27-6.27-1.4-.14-.18-.1-.31-.01-.38s.54-.04,.81,0c.75,.04,1.48,0,2.41-.72,1.25-.98,13.41-12.65,15.09-14.81,.29-.37,.59-1.09,.86-1.29,.45-.35,3.96-1.93,5.4-.08,.38,.42,.15,.8-.69,1.45Z"/>
      <path d="M204.58,120.36c.47,.99,1.26,2.71,.13,3.25-.92,.44-2.73-.87-3.4-2.27-.25-.51-.31-.82-.69-2.4-.26-.97-.47-1.41-.83-2.16-.56-1.16-1.92-3.99-2.51-5.14-.05-.1-.3-.53-.8-.88-1.39,3.4-3.84,7.3-7.54,9.83l-.23-.14c4.73-6.51,7.59-17.7,6.73-19.48-.34-.72-.97-.96-1.32-1.09,.21-.27,.52-.58,.79-.72,1.3-.62,5.11,.95,5.56,1.87,.05,.1,.06,.31-.01,.42-.11,.22-.95,1-1.04,1.25-.54,1.77-1.16,3.45-1.79,5.18,1.25,.33,1.38,.34,1.58,.75l.77,1.69,4.6,10.04Z"/>
      <path d="M223.25,112.47c7.5-4.8,11.45-11.76,13.41-23.42,.07-.52,.32-1.94,.2-2.46-.04-.18-.11-.29-.25-.25-.33,.08-7.23,3.3-8.2,4.15-.51,.47-.99,.93-1.36,1.49-.09,.1-.16,.15-.31,.19-1.22,.29-4.46-2.6-4.9-4.44-.04-.18-.07-.45,.15-.5,.18-.04,.45,.09,.85,.3,1.34,.73,1.57,.87,2.75,.6,1.25-.3,10.79-4.18,11.78-5.11,.16-.15,.62-.85,.78-.96,.16-.15,.37-.24,.52-.28,.96-.23,2.26,.83,2.69,1.19,1.3,1.05,1.53,1.39,1.64,1.83,.14,.59-.06,.72-1.57,1.73-.17,.12-.33,.23-.53,1.21-.57,3.01-1.09,5.74-2.68,9.73,1.2,0,4.4,.05,8.97,2.94,2.34,1.51,2.87,2.59,3.12,3.66,.41,1.73-.87,2.42-1.42,2.55-1.29,.3-2.17-.81-2.85-1.7-2.18-2.79-4.86-5.27-8.19-6.54-3.1,7.61-8.37,12.32-14.53,14.39l-.07-.3Z"/>
      <path d="M290.05,94.27c.01,.34-.26,.42-.37,.42-.08,0-3.05-1.12-6.4-4.31-1.27,1.04-4.7,3.91-11.31,4.52l-.08-.41c5.69-1.58,8.54-5.26,9.42-6.41-1.63-2.47-1.79-4.55-1.88-5.76-1.22,1.54-2.56,2.85-4.17,4.05-.02,1.02-1.6,1.81-2.73,2.02,1.3,.58,2.75,1.62,2.78,3.13,.03,1.85-1.67,1.92-2.2,1.93-.95,.02-1.11-.62-1.47-2.02-.08-.26-.53-1.88-2.17-2.65l.08,4.65c.01,.49-.06,.72-.63,1-1.01,.51-1.81,.6-2.41,.61-1.1,.02-1.07-.36-1.08-1.08l-.05-3.06c-2.24,1.59-4.34,2.95-7.35,4.11l-.2-.38c2.77-1.94,5.4-4.83,6.91-7.43l-.95,.02v.61c.03,.87-2.62,1.33-3.07,1.34-1.1,.02-1.11-.43-1.11-.81l-.15-8.4,4.3,1.32,1.44-.03-.04-2.5-7.64,.14-.47-.82,8.1-.14-.07-3.75,4.66,.3c.3,.03,.57,.03,.58,.41s-.25,.57-1.08,1.08l.03,1.89,2.88-.05,1.33-1.8c.15-.19,.3-.38,.64-.39,.19,0,.42,.14,.61,.29l1.99,1.44c.23,.18,.42,.41,.43,.71,.01,.38-.37,.5-.67,.5l-7.19,.13,.04,2.5,1.48-.03,1.22-1.42c.41-.46,.63-.5,.82-.51,.3,0,.42,.11,.92,.48l1.92,1.44c.19,.15,.31,.37,.31,.68,0,.27-.07,.57-.81,1.34l.03,1.74c1.66-2.53,2.94-5.16,3.32-10.89l5.65,.69c.23,.03,.38,.11,.39,.45,.01,.57-.4,.65-1.46,.9-.4,.99-.83,2.1-1.75,3.55l5.3-.1,1.44-2.07c.11-.19,.26-.38,.6-.39,.23,0,.38,.11,.65,.29l2.49,1.73c.15,.11,.42,.3,.43,.71,.01,.38-.33,.5-.63,.5l-1.63,.03c.24,.87-.32,1.07-1.15,1.35-1.08,2.86-2.11,4.54-3.07,5.92,2.37,1.47,4.47,2.27,6.79,2.72v.42c-1.2,.42-2.54,1.84-2.54,3.55Zm1.86,13.14l-33.94,.61-.47-.82,7.61-.14-.15-8.36,5.12,.29c.15,0,.61,.06,.62,.56,.01,.45-.29,.57-1.08,1l.12,6.43,3.14-.06-.19-10.37-11.77,.21-.47-.82,22.63-.41,1.55-2.3c.11-.15,.3-.35,.6-.35,.3,0,.49,.14,.69,.33l2.23,1.89c.19,.15,.38,.33,.39,.67,.01,.38-.33,.5-.63,.5l-9.72,.17c.24,.87-.36,1.14-.88,1.34l.05,2.57,4.16-.07,1.36-1.99c.11-.15,.3-.35,.6-.35,.26,0,.46,.14,.65,.25l2.79,1.65c.38,.22,.43,.56,.43,.71,.01,.38-.37,.5-.63,.5l-9.35,.17,.1,5.6,8.89-.16,1.92-2.49c.15-.19,.3-.38,.6-.39,.26,0,.42,.14,.69,.37l2.65,2.03c.15,.15,.39,.37,.39,.71-.02,.39-.4,.51-.7,.52Zm-26.69-25.3l-1.51,.03,.08,4.2,1.51-.03-.08-4.2Zm5.76-.1l-1.63,.03,.08,4.2,1.63-.03-.08-4.2Zm.09,5.07l-1.63,.03v.57c.73,.03,1.11,.09,1.64,.24v-.84Zm9.75-6.61c-.15,.19-.19,.23-.41,.58,.12,.64,.69,2.33,2.58,4.34,.87-1.87,1.27-3.09,1.61-4.99l-3.78,.07Z"/>
      <path d="M328.49,105.92c-.27,.56-.41,.92-.6,.88-.45-.09-1.8-2.01-2.74-3.7-2.33-4.2-2.98-8.76-3.27-11.37l-2.36,11.95,.26,.05,2.36-1.81c.23-.19,.36-.28,.66-.22s.45,.24,.6,.47l1.82,2.32c.18,.27,.21,.5,.17,.73-.07,.37-.43,.42-.73,.36l-5.31-1.05-1.16,5.87c-.29,1.49-1.72,2.05-3.79,1.64-.33-.07-1.56-.31-1.3-1.64l1.35-6.83-5.79-1.14-.22-.66c-2.27,1.13-3.49,1.47-4.39,1.72l-.81,4.12c-.12,.63-.23,1.19-1.38,1.5-.9,.28-1.97,.23-2.46,.13-1.04-.21-1.15-.61-.98-1.47l3.23-16.37c-2.9,2.01-4.62,2.52-5.49,2.81l-.24-.36c5.12-4.27,9.67-12.44,11.21-18.31l5.86,2.93c.42,.2,.71,.52,.61,1.01-.11,.56-.61,.57-1.46,.56-1.01,1.61-2.31,3.52-4.25,5.72,.41,.47,.55,.73,.51,.95-.11,.56-.71,.86-1.27,1.18l-2.84,14.4c4.21-2.76,8.01-7.75,11.11-14.47l-6.13-1.21-.28-.94,8.65,1.71,1.8-9.13,5.27,1.62c.44,.12,.69,.41,.63,.7-.1,.52-.43,.61-1.44,.87l-1.36,6.9,4.16,.82,2.44-1.8c.28-.25,.48-.29,.7-.25,.22,.04,.38,.23,.6,.5l1.94,2.31c.16,.19,.34,.41,.27,.79-.07,.37-.47,.41-.73,.36l-8.65-1.71c1.02,5.02,4.15,10.27,8.61,13.23l-.08,.41c-.91,.34-2.37,.9-3.31,2.92Zm-12.72-9.07c-2.78,2.54-6.26,4.36-6.99,4.72l5.83,1.15,1.16-5.87Z"/>
      <path d="M356.21,108.17c-.83,1.91-3.03,2.69-4.83,1.9-1.87-.82-2.72-2.96-1.9-4.83,.8-1.84,2.96-2.72,4.83-1.9,1.84,.8,2.72,2.96,1.9,4.83Z"/>
      <path d="M402.18,135.46c-.72,.23-1.38,.03-2.02-.43-.92-.66-1.72-1.94-1.01-3.25,.33-.65,.88-1.74,1.01-1.98-7.15-2.5-7.93-2.78-14.76-5.28-.08,0-.31-.08-.37-.13l1.86,3.63,7.89,5.69,1.84-.54c.41-.12,.81-.02,1.12,.2,.25,.18,.4,.48,.47,.71l.85,3.09c.11,.36,.12,.74-.1,1.05-.2,.28-.5,.43-1.46,.53l-6.11,8.47c-.38,.52-1.33,.68-1.59,.72-.99,.08-2.57-.83-3-1.14-.52-.38-.61-.9-.14-1.55l1.08-1.5-8.13-5.87-.75,1.04c-.73,1.01-2.75,.07-3.58-.53-1.35-.97-.89-1.62-.46-2.2l8.46-11.72c-.29-.63-.14-1.03-.12-1.07l1.68-4.01-8.88,6.61c-.31,.24-.8,.59-1.13,1.05-.22,.31-.35,.68-.49,1.46-.33,1.81-.6,2.97-1.38,4.05-.73,1.01-2.47,2.32-4.34,.97-1.41-1.02-1.31-2.72-.64-3.64,.27-.37,1.94-1.91,2.23-2.31,1.53-2.12,.17-3.66-.81-4.83l.25-.28c2.82,1.85,3.68,1.49,6.2,.27,4.35-2.09,13.11-7.11,15.8-8.9l.24,.31-5.73,4.26,3.5,2.33c3.26-2.32,7.09-5.11,9.48-7.39l4.16,5.1c.23,.26,.53,.75,.24,1.15-.29,.4-.43,.34-1.94-.28-.44,.1-.87,.3-4.85,1.35-4.4,1.12-4.93,1.2-5.27,1.29,1.31,.9,7.76,5.22,9.21,6.18,.23-1.42,.1-3.24-.6-6.41l.37-.2c5.6,5.81,5.38,10.13,3.61,12.59-.36,.44-1.02,1.04-1.89,1.34Zm-23.3-17.64c-1.5-1.08-.92-2.34-.34-3.6,.92-2.05,.23-4.46-.24-5.35l.28-.26c.54,.29,.93,.53,1.51,.95,4.24,3.06,3.44,6.49,2.48,7.81-.61,.85-2.15,1.56-3.69,.45Zm15.5,16.68l-8.13-5.87-6.18,8.56,8.13,5.87,6.18-8.56Zm-8.25-20.97c-1.29-.93-1.03-1.81-.2-4.39,.32-1.03,.32-3.03-.85-4.77l.28-.26c.56,.26,1.09,.56,1.86,1.11,3.84,2.77,3.97,6.08,2.73,7.8-.97,1.35-2.75,1.28-3.82,.51Z"/>
      <path d="M425.45,166.38c-.39,.35-.64,.48-.97,.11-.38-.42-.75-2.99-.87-3.8l-3.43,3.09c-.25,.23-.48,.38-.8,.36-1.02,0-2.65-1.53-2.83-1.73-.63-.7-.55-.78,.15-1.41l-.76-.84c-.31,.33-.52,.27-1.07-.11l-4.87,4.38c-.79,.71-2.17,1.95-5.23-1.45-.56-.62-.27-1.03,.1-1.36,1.07-.96,1.52-1.37-.48-5.06l.41-.22c.3,.34,2.11,2.63,2.21,2.74,.96,1.07,1.24,.82,2.23-.07l3.12-2.81-1.29-1.43c-.45,.41-.48,.43-1,.24-.34-.15-1.35-.77-1.79-1.14l.9,2.7c.14,.38,.07,.75-.19,.98-.34,.3-.73,.04-.9-.15-.2-.23-.38-.48-.55-.78-2.51-.13-6.32-.68-10.47-3.76l.21-.34c2.83,.76,6.51,.5,10.37-.58l5.03-4.53c-.68-.25-1.34-.53-2.23-1-4.98,3.46-11.34,5.17-17.17,3.55l.05-.4c5.45-.63,10.36-3.32,14.64-6.76-1.27,.28-2.57,.48-3.97,.57-.86,.57-1.24,.71-1.52,.4-.18-.2-.14-.44,.21-.9l2.98-4.21c1.51,.94,2.63,1.5,4.38,2.27l2.47-2.23c-.38,.03-1.24,.15-1.92-.61-.3-.34-.92-1.41,.15-2.38,.17-.15,1.67-1.25,1.98-1.53,1.1-.99,2.02-2.73,2.52-4.16h.4c1,2.35,.93,4.14,.58,5.33l4.02-3.62,1.57,4.74,4.28,4.75,3.04-2.73,3.16,4.13c.2,.28,.4,.61,.09,.89-.37,.33-.63,.21-1.78-.28l-1.49,1.34,5.75,6.38,2.8-.23c.21,0,.46-.06,.69,.2,.13,.14,.17,.3,.23,.76l.28,3.26c.01,.24-.06,.56-.22,.71-.28,.25-.62,.1-.85-.15l-9.42-10.46,.98,2.17c.12,.25,.1,.57-.12,.77-.39,.35-.73,.1-1.63-.57-.63,.21-.95,.3-1.63,.5l5.22,5.79,2.84-.07c.3,0,.48-.03,.69,.2,.15,.17,.17,.3,.23,.71l.32,3.12c.04,.27-.11,.61-.25,.74-.28,.25-.55,.19-.82-.12l-3.27-3.63,.93,3.64c.05,.16,.06,.46-.08,.59-.48,.43-.99-.08-1.83-.95-.79-.26-1.29-.47-3.2-1.35,.9,2.86,2.05,4.82,3.43,6.69l-.28,.25c-2.39-.8-3.08-.38-4.46,.86Zm-9.6-21.3c.31-.39,.69-.93,.52-1.79l-3.85,3.47c-.28,.25-.53,.43-.87,.73,1.06,.22,1.62,.22,2.97,.13-.26-.74-.12-.92,1.23-2.54Zm4.12,14.98l-5.62-6.24-2.64,2.38,5.62,6.24,2.64-2.38Zm-6.51,13.24c-1.16-1.29-.81-1.86,.56-4.07,1.26-2.05,.6-5.22,.37-6.09l.36-.17c2.89,3.21,4.99,7.98,2.29,10.41-1.23,1.12-2.7,.91-3.58-.08Zm9.66-16.08l-5.62-6.24-2.53,2.28,5.62,6.24,2.53-2.28Zm-5.34-15.2l-.59,.53c1.14,1.27,2.2,2.5,1.56,4.56,1.08-.21,2.12-.48,2.93-.76l-3.9-4.33Zm7.95,8.83l-.68-.76c-2.98,.59-5.3,.5-6.91,.36l5.44,6.05c.43-2.93,1.4-4.56,2.15-5.65Zm-4.58-11.87l-2.76,2.48,4.13,4.58c1.83-.68,2.8-1.25,3.52-1.64l-4.89-5.42Zm5.84,13.28c-.67,1.57-.77,2.99-.59,4.66,.87-.28,2.15-.66,3.61-1.31l-3.02-3.35Z"/>
      <path d="M434.6,206.63l-3.14-5.49c-.73-1.28-1.88-3.28,.68-4.75l9.63-5.51-2.54-4.43,1.2,3.63c.08,.22,.15,.57-.28,.81-.46,.26-.76,.04-1.19-.32-2.74,1.31-6.43,3.02-10.74,1.04-4.05-1.82-5.96-5.31-6.62-6.46l.31-.22c5.65,6.53,12.16,3.12,16.82,.67l-1.67-2.92c-.29,.25-.83,.69-1.65,1.16-4.11,2.35-7.05,.41-7.99-1.23-.28-.49,.01-.66,.21-.77s1.19-.59,1.38-.7c.49-.28,.77-.48,.9-.86,.04-.15-.07-.96-.05-1.15l-7.75,4.43c-1.05,.6-2.7-1.07-3.27-2.05-.62-1.08-.26-1.29,.3-1.61l28.52-16.31,.69,5.1,.9,1.58,1.56,.59c.38,.13,.66,.23,.85,.56s.14,.7,.11,.81l-1.1,3.72c-.03,.1-.07,.26-.23,.35-.99,.56-1.22,.31-2.22-.83-1.28-.1-3.71-.32-3.76-.33-.89-.1-3.26-.44-3.82-.43-.28,1.42-1.04,5.43-2.96,7.4l7.7,13.47,2.41,.41c.29,.05,.53,.09,.68,.35,.09,.16,.1,.25,.11,.81l-.24,2.93c-.02,.27-.12,.55-.38,.7-.33,.19-.6-.05-.75-.31l-2.74-4.8c-.06,.12-.09,.23-.29,.34-.46,.26-.65,.15-1.55-.42l-5.85,3.34c-.66,.38-1.06,.82-.51,1.77l1.2,2.1c.13,.23,.43,.76,1.34,.67,.22,0,2.44-.31,4.83-.93l.09,.38-3.61,1.54c-.15,.04-.71,.28-.81,.33-.3,.17-.29,.25-.41,1.11-.1,.67-.55,1.1-1.14,1.44-1.44,.84-2.57,.31-3.16-.71Zm4.97-32.79c2.09-.46,7.79-2.32,9.02-3.06l-1.01-1.77-16.79,9.6c.89,1.71,1.42,2.72,4.41,1.01,.39-.24,3.02-1.74,4.37-5.78Zm16.7,21.96c-.09-.16-.47-1.04-.58-1.24-.1-.03-2.33-1.41-3.14-1.91l-.03,1.63c.01,.25,.01,.56-.35,.77-.33,.19-.6-.05-.75-.31l-7.89-13.8,.5-.81,5.54,9.69,2.22,.52c.36,.1,.52,.14,.67,.4q.09,.16,.09,.69c1.37-.43,2.6-1.01,3.12-1.26l-6.24-10.91c-3.87,2.69-5.5,.22-5.7-.14-.43-.76-.64-2.12,.7-2.89,1.51-.86,2.61-.1,3.36,.39,1.36,.92,2.86-.11,3.64-.64l.31,.3c-.46,1.09-.82,1.69-1.64,2.47l2.1,3.68,4.93-2.82,2.27,5.11c.14,.31,.05,.62-.28,.81-.49,.28-.81,.03-1.58-.62l-2.96,1.69,1.82,3.19,1.65,.37c.38,.13,.68,.35,.85,.65,.04,.07,.23,.48,.15,.79l-1.11,4.16c-.04,.24-.24,.49-.47,.62-.55,.32-.9-.05-1.2-.58Z"/>
    </g>
    <g>
      <path d="M129.22,56.32l-2.52,1.99,2.94,3.73c.81,1.03-.63,3.01-1.21,3.46-.3,.24-.93,.63-1.29,.18l-.6-.76-1.76,1.39,2.46,3.13,2.25-1.77v-2.86c.01-.25,.01-.44,.28-.66,.18-.14,.41-.17,.76-.16l2.96,.08c.36,.01,.59,.12,.73,.31,.24,.3,.04,.61-.24,.83l-6.22,4.9,2.61,3.31,3.16-2.49-.15-2.88c0-.19,0-.5,.28-.71,.21-.17,.48-.14,.76-.1l2.98,.21c.3,.01,.51,.09,.68,.3,.24,.3,.09,.62-.18,.83l-6.98,5.5,1.79,2.28c.36,.46-.12,1.97-1.46,3.02-.52,.41-1.33,.75-1.78,.17l-2.11-2.67-2.98,2.34c.47,1.6,.56,2.21,.69,3,1.77-.07,3.26-.11,8.76-4.44,2.31-1.82,5.7-4.88,7.3-6.59l.28,.23c-.52,1.84-.25,2.56,1.2,4.46,.53,.67,.28,.86-2.02,2.68-9.87,7.78-11.56,7.68-15.41,6.73-.11,2.55-.85,5.05-2.13,7.29l-.37-.15c.5-2.86,.21-5.23-.57-8.21-3.15-1.5-5.13-3.19-6.68-4.67l.26-.3c2.04,1.1,3.12,1.58,5.53,2.33-1.2-3.14-2.94-5.61-4.41-7.65l-.76,.6c.92,2.42,1.16,3.03-.54,4.37-.58,.45-1.67,1.12-2.15,.52-.19-.24-.75-2.26-.89-2.69-.61-1.78-1.99-5.52-3.67-8.72l-2.37,1.87c.3,.94,.45,1.51,.65,2.2,.63,.05,.9,.08,1.04,.26,.26,.33,.08,.97-.03,1.4l13.9,17.64c.93,1.18-.74,3.24-1.41,3.77-.76,.6-1.11,.28-1.49-.2l-10.79-13.69c-.05,2.06-.19,3-.67,4.76l-.4-.08c-.46-5.2-1.86-9.66-7.93-18.8l5.29-2.59c.53-.27,.82-.21,1.01,.04,.24,.3,.17,.46-.43,1.77,.55,1.39,.74,1.88,.96,2.54l2.06-1.63v-1.93c.02-.3,.1-.57,.35-.76,.18-.14,.46-.17,.71-.16l3.28,.17c.36,.01,.58,.23,.72,.42,.36,.46,.11,.95-.28,1.7,.06,.2,.36,.9,.4,1.07l4.19-3.3-2.58-3.28-2.88,2.27-.89-.38,3.25-2.56-2.37-3.01,4.2-2.67c.24-.14,.8-.48,1.14-.06,.29,.36,.18,.85-.39,1.69l.98,1.24,1.43-1.12-.03-1.6c0-.44,.09-.76,.39-1,.24-.19,.52-.21,.8-.24l3.05-.19c.22-.03,.51,.14,.72,.42,.19,.24,.21,.58,.19,1.62l1.17,1.49-.17-1.15c-.03-.22,.06-.49,.27-.66,.21-.17,.46-.17,.76-.16l2.11,.11c.25,0,.54,.06,.73,.31,.23,.27,.02,.58-.22,.77Zm-11.14,8.78l-4.37,3.45c.78,1.99,1.72,4.31,1.99,5.03l.52-.41,.1-1.5c.03-.46,.25-.69,.43-.83,.3-.24,.5-.24,1.12-.2l2.82-2.22-2.61-3.32Zm2.2-8.13l-1.76,1.39,2.58,3.28,1.76-1.39-2.58-3.28Zm.96,12.14l-2.06,1.63,1.58,.13s.38,.05,.6,.32,.24,.55,.14,.92c-.07,.4-.08,.46-.09,.76,.3,.45,.3,.5,.48,.8l1.82-1.44-2.47-3.12Zm2.15-8.19l-1.76,1.39,2.61,3.31,1.76-1.39-2.61-3.31Zm.84,11.99l-1.91,1.51c.8,1.58,1.33,2.69,1.79,3.96l2.73-2.15-2.61-3.32Z"/>
      <path d="M164.82,40.32l-4.13,2.36,2.15,3.76c.44,.77,.09,1.24-.17,1.57l2.86,.1c.42,.03,.87,.04,1.06,.37,.38,.67-.21,.96-1.42,1.57-.69,1.29-1.77,3.06-2.96,4.32,4.3,.75,8-.56,9.38-1.04l.21,.37c-.97,1.8-1.34,2.72-.92,4.31,.32,1.11,.31,1.16,.04,1.31-.34,.19-6.34,.82-13.37-5.09l4.56,7.99c1.55,2.72-.77,4.18-2.48,5.16-.67,.38-.77,.22-1-.19-1.36-2.38-1.8-2.22-5.53-1.03l-.12-.37c.34-.19,3.06-1.57,3.13-1.61,1.28-.73,1.08-1.15,.41-2.33l-1.38-2.42c-.81,2.56-1.63,4.71-3.03,7.56,.49,1.01,.67,1.4,.2,1.67-.17,.1-.37,.12-.73-.12l-4.92-3.24c2.85-2.03,5.55-4.15,8.16-6.44l-3.36-5.88-6.18,3.53-.82-.51,6.58-3.76-1.74-3.05-7.86,4.49,1.19,2.08c3.91,6.85,5.41,14.45,2.53,19.7l-.37-.1c.56-2.77-1.02-8.19-4.46-14.19l-8.82-15.44,5.2-.56,6.78-3.87-2.22-3.89,4.74-2.22c.39-.18,.73-.2,.93,.14,.19,.34,.13,.46-.54,1.78l1.09,1.91,7.05-4.03,.24-2.94c.04-.24,.04-.47,.35-.64,.2-.11,.27-.15,.79-.1l3.83,.31c.33,.03,.6,.19,.71,.39,.19,.34-.03,.64-.3,.8l-10.04,5.73c.56,.75-.06,1.46-.41,1.93l1.05,1.85,3.22-1.84,.11-1.44c.02-.28,.21-.88,.48-1.03,.23-.13,.68-.21,.93-.17l3.61,.48c.24,.04,.52,.37,.56,.44,.08,.13,.16,.44,.14,.72-.02,.19-.2,1.05-.23,1.24l.71,1.24,.2-.12,.14-2.4c.02-.28,.13-.47,.33-.59,.23-.13,.41-.14,.79-.1l2.79,.36c.16,.04,.48,.22,.59,.42,.18,.33,.02,.6-.31,.79Zm-17.71,5.09l-5.87,3.36-.84-.54,6.28-3.59-1.78-3.12-7.86,4.49,3.97,6.95,7.86-4.49-1.76-3.06Zm4.49,15.73c-1.44,.82-1.89,.19-3.01-1.22-1.27-1.59-2.36-1.64-3.76-1.68l-.09-.39c2.54-1.63,6.23-2.49,7.73,.13,.81,1.44,.07,2.62-.87,3.16Zm2.89-19.95l-3.32,1.9,1.74,3.05,3.32-1.9-1.74-3.05Zm2.17,3.79l-3.32,1.9,1.74,3.06,3.32-1.9-1.74-3.06Zm2.74,4.8l-.58-1.01-3.32,1.9,.29,.5c2.07,1.76,3.89,2.45,5.22,2.9,.01-1.7-.26-3.19-.49-4.21-.46,.3-.77,.52-1.12-.08Z"/>
      <path d="M178.81,32.98c-3.06-7.23-3.74-8.33-6.03-8.56-.22-.04-1.39,.17-1.47-.05-.25-.65,1.46-1.57,2.36-1.92,2.56-1,5.37-.27,5.85,.96,.13,.32,.13,.45,.19,1.34,.06,.8,.66,2.77,1.38,4.61,.37,.94,1.4,3.6,2.31,4.33,.75-.75,4.66-4.22,5.37-5.16,.06-.06,.96-1.16,.75-1.7-.07-.18-.23-.28-.71-.55,0,0-.84-.34-.88-.45-.08-.22,.41-.66,1.06-.91,2.49-.97,5.53,1.41,5.92,2.42,.53,1.37-.92,2.22-2.68,3.24-1.95,1.17-3.86,2.46-5.65,3.82-3.38,2.6-8.04,6.74-6.51,10.67,1.66,4.25,6.39,2.45,8.55,1.61,3.28-1.28,5.95-3.15,6.49-3.57,.98-.8,1.76-1.43,2.27-1.63,1.04-.41,3.48-.11,3.97,1.15,.11,.29,.22,.99-.17,1.6-.66,1.17-7.99,4.52-9.28,5.03-4.32,1.68-11.44,3.54-13.78-2.47-1.59-4.07,.92-8.08,3.13-10.72-1.07-.43-1.51-.92-2.44-3.09Z"/>
      <path d="M239.81,23.82l-14.29,3.25c3.31,3.57,8.33,5.95,16.42,5.22l.09,.41c-.49,.27-1.1,.57-1.62,1.24-.67,.87-1.01,2.37-.84,3.28,.08,.54,.13,.92-.36,1.03-.94,.21-9.19-.84-14.73-10.68,.01,4.04-.75,7.67-3.98,11.1-2.94,3.13-6.8,5.16-10.95,6.26l-.12-.37c10.55-5.22,10.37-13.66,10.31-16.19l-13.8,3.14-.65-.76,14.4-3.28c-.03-.99-.11-2.04-.53-4.6-1.24,.32-11.74,2.75-12.2,2.86l-.09-.38c10.14-3.18,17.07-6.7,20.61-9.61-.3-.29-.42-.46-.71-1.54-.29-1.12-.66-1.87-2.01-2.75l-.6,.14c-.67,1.42-2.61,5.24-6.36,8.82l-.33-.24c1.25-2.19,2.04-4.27,2.54-7.64l-7.39,1.68c1.11,.18,4.03,.83,4.54,3.05,.36,1.58-1.03,2.61-2.05,2.85-.83,.19-1.94,.01-2.22-1.24-.06-.26-.21-1.62-.28-1.92-.23-1.02-.88-1.78-1.84-2.32l-.11,.03c-2.31,4.81-5.28,7.63-6.29,8.61l-.37-.23c2.55-4.63,3.02-8.5,2.57-13.27l6.45-.56c.3-.07,.5,.12,.55,.31,.09,.41-.29,.66-1.31,1.21-.59,1.6-.81,2.21-1.15,2.96l3.92-.89,1.08-2.39c.07-.21,.18-.44,.52-.51,.23-.05,.27-.02,.79,.18l2.75,1.12c.2-2.43,.13-3.24,.04-4.37l6-.3c.31-.03,.65,.09,.72,.39,.1,.45-.03,.56-1.35,1.22-.44,1.21-.64,1.73-.94,2.47l5.62-1.28,1.23-2.62c.12-.19,.19-.4,.53-.48,.23-.05,.26-.06,.75,.15l3.15,1.3c.26,.1,.47,.33,.52,.56,.09,.41-.22,.6-.52,.67l-8.93,2.03c2.54,.37,4.08,1.57,4.39,2.92,.24,1.06-.25,1.52-.61,1.84l4.35,1.86c.14,.09,.32,.2,.39,.5,.09,.41-.37,.64-.71,.72-.23,.05-1.4,.12-1.44,.13-.6,.14-3.49,1.03-4.16,1.23-1.94,.56-3.12,.91-4.21,1.2,.44,.73-.14,1.14-.81,1.65,.25,1.97,.25,2.48,.29,3.38l9.42-2.15,1.29-2.67c.11-.22,.22-.45,.52-.51,.23-.05,.44,.02,.75,.15l3.36,1.34c.18,.08,.44,.37,.49,.6,.1,.36-.12,.61-.49,.69Z"/>
      <path d="M275.98,3.04l-5.67,.43c.12,.07,.24,.14,.26,.41,.04,.5-.69,.67-1.06,.78-1.12,1.64-2.15,2.88-3.04,3.92l3.78-.29,1.14-1.29c.25-.29,.47-.38,.71-.4,.35-.03,.67,.1,.91,.28l2.41,1.64c.2,.14,.45,.35,.48,.74,.02,.23,0,.47-.92,1.62l1.17,15.38c.1,1.35-2.03,1.82-3.03,1.9-.23,.02-1.16,.09-1.24-.95l-.06-.77-5.94,.45,.06,.81c.04,.5-.21,.75-.44,.89l3.61,1.51c.2,.1,.4,.2,.42,.47,.04,.58-.57,.63-1.42,.69-4.33,3.7-9.47,4.91-11.58,5.3l-.18-.37c3.76-2.11,6.16-4.66,7.14-6.59-.26,.1-.53,.12-.8,.14-.81,.06-.92-.43-.95-.78l-.03-.35c-.15,.09-.3,.14-.53,.16s-.62-.03-.82-.02c-2.77,2.38-6.94,5.57-12.73,7.02l-.18-.34c6.38-4.36,8.73-8.54,9.58-10.08l4.59,2.17-1.01-13.19-.31,.02-6.79,.52,4.52,2.8c.2,.1,.21,.26,.23,.41,.04,.5-.39,.53-.58,.55-.35,.03-.7,.01-.93-.01-4.24,3.39-6.49,4.41-8.42,5.02l-.18-.37c2.22-1.91,4.53-5.23,5.25-8.39l-5.86,.45,.2,2.66c.43,5.59,.8,13.51-4.41,19.42l-.36-.17c1.78-4.09,1.47-10.23,.92-17.44l-.5-6.52,3.61,1.04c-.86-.63-.98-1.63-.99-1.75-.26-2.35-.37-3.35-1.92-4.39l.13-.4c4.87,.25,5.85,2.93,5.92,3.85,.05,.66-.16,1.95-1.3,2.74l3.01-.23c.84-3.24,.83-5.84,.74-7.54l5.37,1.22c.16,.03,.4,.2,.42,.43,.03,.35-.12,.4-1.49,.77-1.42,2.2-2.27,3.28-3.73,5.02l2.04-.16,1.66-2.14c.18-.25,.28-.37,.59-.39,.23-.02,.35,.05,.72,.29l2.36,1.45-.44-5.82,4.57,1.4c.21-1.8,.2-2.92,.06-4.77l-5.55,.42,.73,.49c.12,.11,.33,.28,.36,.63,.03,.39-.27,.56-.58,.59l-17.31,1.32-.53-.85,6.98-.53-.34-4.43,5.17,.11c.31,.02,.62,0,.66,.46,.03,.35-.09,.39-1.04,1.05l.19,2.47,1.12-.09,1.65-2.22c.17-.25,.28-.41,.59-.43,.27-.02,.44,.12,.68,.3l.53,.35,12.68-.97,1.58-2.18c.18-.21,.28-.37,.59-.39,.15,0,.23-.02,.68,.26l2.68,1.62c.24,.14,.34,.44,.36,.63,.03,.33-.31,.51-.62,.53Zm-17.48,20.45c-3.17,2.61-5.96,4.72-10.83,5.98l-.18-.37c3.36-2.27,6.19-5.24,7.97-8.83l4.33,2.31c.16,.06,.21,.22,.22,.33,.04,.5-.53,.63-1.51,.58Zm12.02-14.33l-5.94,.45,.37,4.82,5.94-.45-.37-4.82Zm.43,5.67l-5.94,.45,.37,4.9,5.94-.45-.37-4.9Zm.44,5.74l-5.94,.45,.38,5.01,5.94-.45-.38-5.01Zm4.69,14.26c-1.31,.1-1.67-.61-2.68-2.55-1.37-2.65-2.97-3.38-4.14-3.91l.09-.39c2.58-.24,8.56,.82,8.82,4.25,.11,1.46-.97,2.52-2.09,2.6Z"/>
      <path d="M291.04,17.68c-.56,1.28-2.86,6.85-3.04,9.27-.04,.62,.42,3.25,.38,3.79-.05,.69-.78,1.65-1.55,1.59-1.08-.08-3.8-2.14-3.27-9.31,.32-4.43,1.95-10.24,2.83-13.32,.1-.3,.5-1.59,.57-2.52,.08-1.16-.38-2.7-.88-3.4-.14-.2-.62-.47-.61-.63,.01-.15,.07-.42,.26-.41,1.08,.08,5.44,2.49,5.24,5.27-.05,.73-.56,1.78-2.84,6.58-1.38,2.92-1.61,6.16-1.64,6.55s-.17,2.27,.26,2.31c.62,.04,3.29-5.3,3.81-6.04l.48,.27Zm13.7,13.6c-3.55-.26-10.3-1.14-9.96-5.88,.15-2.04,1.67-3.17,1.86-3.16,.12,.01,.18,.13,.18,.21-.01,.08-.05,.19-.09,.23-.31,.52-.46,1.05-.5,1.55-.2,2.78,3.83,3.23,4.99,3.31,1.39,.1,5.62,.02,6.3-.28,.56-.23,.84-.33,1.61-.27,1.58,.12,3.28,1.21,3.2,2.37-.19,2.38-5.36,2.08-7.59,1.92Zm5.56-21.03c-.32,.09-5.91,1.39-9.35,1.14-1.66-.12-2.95-.45-4.04-1.5-.4-.42-1.1-1.4-1.07-1.86,.01-.08,.13-.15,.2-.14s.34,.18,.49,.23c.15,.09,.97,.5,2.05,.58,2.7,.2,7.26-1.25,7.42-1.36,1.01-.55,1.78-.99,2.63-.93,1.16,.08,3.24,1.32,3.16,2.4-.05,.85-.62,1.15-1.49,1.44Z"/>
      <path d="M350.23,36.14l-7.05-1.59-1.29,5.73c-.68,3.02-4.28,2.44-5.6,2.15-.49-.11-.91-.2-.84-.51,.03-.11,.28-.73,.32-.88,.52-2.3-.71-2.82-3.67-4.12l.09-.41c1.39,.35,3.24,.73,4.41,1,1.28,.29,1.37-.09,1.5-.69l.73-3.24-22.59-5.1-.26-.97,23.04,5.2,.45-2c-8.73-2.25-9.71-2.47-10.9-3.49-1.76-1.51-2.08-2.89-2.6-5.18-1.41,.99-2.86,1.97-5.23,3.34-.27,.65-.46,1.16-1.03,1.04-.26-.06-.39-.37-.45-.66l-1.2-5.32c2.46,.16,2.5,.17,4.86,.26l1.53-6.79-4.45-1-.27-.93,4.71,1.06,1.6-.95c.74-.47,1.04-.4,1.31-.34,.19,.04,.74,.41,.84,.51l1.89,2.17c.13,.15,.34,.59,.27,.93-.14,.6-1.14,1.01-1.84,1.29l-.91,4.04c-.26,1.13,.39,2.31,1.23,2.97,1.27,1.04,2.41,1.45,5.12,2.07,5.51,1.24,12.6,2.64,18.13,3.1v.39c-.58,.43-1.86,1.37-2.05,2.19-.03,.15-.12,.88-.16,1.07-.11,.49-.31,.49-.47,.49l1.4,2.06c.18,.24,.26,.42,.19,.76-.08,.35-.45,.42-.76,.35Zm-22.88-25.06c-1.47-.33-1.61-1.12-2.04-3.59-.14-.78-.5-2.37-2.61-3.88l.2-.35c.39,.05,.86,.07,1.46,.21,3.85,.87,6.59,3.27,6.02,5.8-.3,1.32-1.45,2.17-3.03,1.81Zm-.61,27.84c-1.96-.44-1.86-1.96-1.78-2.82,.17-2.5-.17-3.8-1.56-5.23l.16-.36c4.87,1.26,6.89,4.05,6.32,6.58-.34,1.52-1.67,2.17-3.14,1.83Zm27.25-23.45l-8.79-1.98c-.25,.42-.43,.5-1.43,.35-.58,.27-1.49,.81-2.08,1.16l4.87,1.1,1.43-.91c.46-.29,.59-.34,.93-.27,.41,.09,.66,.23,.85,.47l1.93,2.34c.12,.15,.33,.47,.27,.73-.09,.41-.65,.77-1.63,1.42l-1.51,6.68c-.29,1.28-2.77,1.04-3.22,.94-1.21-.27-1.16-.5-.87-1.78l-9.62-2.17-.08,.38c-.14,.64-1.87,.93-3.38,.58-.45-.1-1.09-.25-.86-1.3l2.65-11.77,4.2,2.65,.91,.2c.38-.82,.41-.94,.83-2.11l-7.62-1.72-.27-.93,6.04,1.36c-.05-.29-.15-1.78-.24-2.08-.43-1.6-1.29-2.03-2-2.39l.08-.38c.59,.02,1.38,.03,2.44,.27,3.43,.77,4.51,2.84,4.16,4.39-.14,.64-.44,.89-.59,1.05l2.72,.61c.38-.79,1.62-3.48,1.87-4.06l4.69,2.21c.28,.14,.34,.43,.3,.58-.16,.72-.98,.65-1.48,.58-1.38,.68-1.51,.73-2.9,1.25l2.79,.63,1.76-1.31c.19-.15,.38-.27,.68-.2,.15,.03,.45,.3,.61,.46l2.11,1.9c.16,.16,.25,.49,.2,.68-.08,.38-.41,.46-.75,.39Zm-8.58,7.26l-9.62-2.17-.48,2.11,9.62,2.17,.48-2.11Zm.67-2.94l-9.62-2.17-.47,2.07,9.62,2.17,.47-2.07Zm.63-2.8l-9.62-2.17-.44,1.96,9.62,2.17,.44-1.96Zm-1.96,15.02c-.14,.29-.25,.58-1.19,.88l-.18,.79,2,.45,1.97-1.54c-1.18-.22-1.52-.3-2.6-.58Z"/>
      <path d="M363.21,29.37c2.17-.9,14.96-4.02,15.92-6.51,.27-.69,.06-1.22-.29-1.81q-.48-.81-.39-1.02c.1-.25,.28-.39,1.47,.07,2.77,1.08,3.96,4.86,4.17,5.93,.05,.31,.03,.88-.1,1.21-.31,.79-.84,.67-1.9,.51-1.32-.22-13.73,2.47-16.55,3.11-.78,.2-1.93,.49-2.14,1.03-.15,.4,.01,.71,.5,1.27,5.22,6.09,5.79,6.77,7.05,8.67,1.09,1.58,2.38,3.91,2.96,5.83,.54,1.7,.51,2.85,.13,3.83-.38,.97-1.57,2-2.79,1.53-1.41-.55-1.68-1.98-2.28-4.91-1.14-5.71-3.22-8.92-7.18-14.94-.59-.93-.96-1.49-.62-2.36,.47-.81,.66-.86,2.04-1.44Z"/>
      <path d="M412.67,73.42l-29.71-16.88,.02-.97,13.31,7.56,5.33-9.38-8.64-4.91,.04-1,17.34,9.85,2.84-1.01c.21-.06,.42-.12,.69,.04,.2,.11,.33,.36,.45,.61l1.48,3.11c.06,.12,.13,.47-.02,.74-.19,.34-.57,.3-.84,.15l-8.74-4.96c.08,.09,.24,.36,.07,.66-.29,.5-1,.59-1.42,.62l-4.45,7.83,7.56,4.3,2.55-1.04c.35-.15,.61-.14,.85-.01,.2,.11,.35,.33,.49,.63l1.63,3.15c.13,.25,.15,.53-.01,.8-.19,.33-.55,.26-.82,.11Zm-5.02-30.77c-5.06,5.31-12.71,5.85-17.4,3.63v-.4c7.72,.12,11.15-3.67,14.06-8.78l4.76,4.53c.38,.35,.4,.54,.29,.74-.26,.48-1.04,.35-1.71,.28Zm15.94,7.54c-3,.43-5.01,.44-6.57,.45l-.16-.27c1.7-1.74,2.38-2.47,3.66-4.1l-3.29-1.87c.04,.24,.03,.33-.04,.46-.25,.44-.87,.44-1.36,.43l-2.41,4.24c-.65,1.14,.16,1.6,.63,1.87l3.56,2.02c1.24,.71,1.75,.99,5.19-2.48l.33,.28-1.63,2.63c-.42,.65-.57,.92-.34,1.45,.26,.72,.5,1.39,.04,2.2-.86,1.51-2.52,1.23-3.87,.47l-7.97-4.53c-2.02-1.15-2.25-2.7-1.25-4.45l4.2-7.39-10.69-6.07c-.13,.24-.26,.61-.54,1.11-1.91,3.36-4.73,3.63-6.24,2.77-1.11-.63-1.73-2.05-1-3.32,.63-1.11,1.52-1.27,2.46-1.27,2.53,.01,3.38,.01,5.75-3.4l.34,.19c-.03,.92-.1,1.81-.46,3.07l7.97,4.53,2.35-4.13,4.23,2.89c.25,.19,.43,.73,.28,1-.13,.24-.29,.28-1.54,.28l-1.28,2.25,6.96,3.95,1.81-.53c.44-.15,.77-.18,1.17,.05,.4,.23,.79,.8,.89,1.17l1.28,3.7c.06,.21,.06,.44-.07,.67-.42,.76-1.28,.31-2.39-.32Z"/>
      <path d="M444.22,61.78l-5.01,6.39c-.36,.46-.63,.68-1.48,.51-1.1-.23-2.39-.89-2.73-1.16-.43-.33-.79-.87-.44-1.32l.67-.85-3.86-3.03-12.26,15.64c-.72,.91-2.64,.49-3.83-.45-1.4-1.1-1.07-1.52-.61-2.1l20.85-26.59,2.89,4.77,3.65,2.86,2.19-.29c.43-.05,.73,.13,.85,.23,.27,.21,.45,.5,.55,.92l.82,3.15c.04,.13,.08,.46-.16,.76-.31,.43-.66,.5-2.09,.56Zm13.49,10.87l-16.29,20.78c-1.84,2.34-4.06,1.48-5.31,.5-1.06-.83-1.23-1.31-.95-1.68,1.6-2.04,1.67-2.13-.17-5.49-.88,.05-2.85-.81-3.37-1.22-.73-.57-.61-.97-.21-1.49l1.12-1.43-3.92-3.08-1.48,1.89c-.67,.85-2.92-.03-3.8-.72-.46-.36-.85-.86-.37-1.47l10.33-13.17,2.57,4.42,3.77,2.96,2.07-.44c.19-.05,.36-.02,.53,.02-1.1-.47-1.25-.54-1.52-.75-.43-.33-.72-.9-.19-1.57l8.75-11.16,2.56,4.56,3.99,3.12,1.83-.39c.35-.07,.78,.07,1.08,.31,.24,.19,.5,.49,.61,.97l.72,2.97c.09,.32,.1,.62-.16,.96-.29,.37-.5,.45-2.19,.6Zm-21.83,5.73l-3.92-3.08-2.81,3.59,3.92,3.08,2.81-3.59Zm2.6-17.17l-3.86-3.03-2.72,3.47,3.86,3.03,2.72-3.47Zm.69,12.97l-3.92-3.08-2.74,3.5,3.92,3.08,2.74-3.5Zm2.46-16.98l-3.86-3.03-2.62,3.35,3.86,3.03,2.62-3.35Zm7.33,18.91l-4.05-3.17c-.6,.76-.74,.94-2.51,.19,.39,.26,.53,.51,.59,.76l.89,3.06c.13,.4,.07,.79-.1,1-.21,.27-.41,.27-1.87,.45l-6.39,8.15c1.01,1.03,1.71,1.58,1.89,1.73,1.19,.93,1.63,.49,2.01,0l9.54-12.17Zm3.24-4.14l-4.05-3.17-2.72,3.47,4.05,3.17,2.72-3.47Zm3.15-4.02l-4.05-3.17-2.62,3.35,4.05,3.17,2.62-3.35Z"/>
    </g>
  </g>
</svg>